<svg xmlns="http://www.w3.org/2000/svg" width="170" height="57" viewBox="0 0 170 57">
  <metadata><?xpacket begin="﻿" id="W5M0MpCehiHzreSzNTczkc9d"?>
<x:xmpmeta xmlns:x="adobe:ns:meta/" x:xmptk="Adobe XMP Core 5.6-c142 79.160924, 2017/07/13-01:06:39        ">
   <rdf:RDF xmlns:rdf="http://www.w3.org/1999/02/22-rdf-syntax-ns#">
      <rdf:Description rdf:about=""/>
   </rdf:RDF>
</x:xmpmeta>
                                                                                                    
                                                                                                    
                                                                                                    
                                                                                                    
                                                                                                    
                                                                                                    
                                                                                                    
                                                                                                    
                                                                                                    
                                                                                                    
                                                                                                    
                                                                                                    
                                                                                                    
                                                                                                    
                                                                                                    
                                                                                                    
                                                                                                    
                                                                                                    
                                                                                                    
                                                                                                    
                           
<?xpacket end="w"?></metadata>
<defs>
    <style>
      .cls-1 {
        fill: #fff;
        fill-rule: evenodd;
      }
    </style>
  </defs>
  <path id="LogoNona" class="cls-1" d="M101.913,26.012V3.863H98V19.238L86.579,3.863H82.561V26.012h3.917V10.206L98.13,26.012h3.783Zm8.6,0.4c5.19,0,8.337-3.819,8.337-8.435a8.32,8.32,0,1,0-16.64,0A8.069,8.069,0,0,0,110.517,26.411Zm0-3.088c-2.979,0-4.653-2.49-4.653-5.346,0-2.823,1.674-5.313,4.653-5.313,3.013,0,4.687,2.49,4.687,5.313C115.2,20.832,113.53,23.322,110.517,23.322Zm22.968,2.69V14.722c0-3.287-1.741-5.147-5.223-5.147a7.679,7.679,0,0,0-5.692,2.59V9.973h-3.515V26.012h3.515V14.822a5.337,5.337,0,0,1,4.152-2.158c1.975,0,3.247.83,3.247,3.321V26.012h3.516Zm14.6,0V15.386c0-4.317-3.147-5.811-6.729-5.811a9.662,9.662,0,0,0-6.8,2.59L136,14.589a6.648,6.648,0,0,1,4.787-2.026c2.244,0,3.784,1.129,3.784,2.989v2.391a6.713,6.713,0,0,0-5.223-2.059c-2.645,0-5.625,1.527-5.625,5.213a5.353,5.353,0,0,0,5.625,5.313,6.855,6.855,0,0,0,5.223-2.125v1.727h3.515Zm-7.366-1.992c-1.975,0-3.448-1.129-3.448-2.856,0-1.76,1.473-2.889,3.448-2.889a4.752,4.752,0,0,1,3.851,1.66V22.36A4.752,4.752,0,0,1,140.716,24.02Zm13.426,2.391a4.662,4.662,0,0,0,3.315-1.029l-0.837-2.623a2.281,2.281,0,0,1-1.574.564,1.622,1.622,0,0,1-1.54-1.893v-8.4h3.281V9.973h-3.281V5.59h-3.515V9.973h-2.679v3.055h2.679v9.265C149.991,24.95,151.43,26.411,154.142,26.411Zm15.869-.4V15.386c0-4.317-3.147-5.811-6.729-5.811a9.662,9.662,0,0,0-6.8,2.59l1.44,2.424a6.649,6.649,0,0,1,4.788-2.026c2.243,0,3.783,1.129,3.783,2.989v2.391a6.713,6.713,0,0,0-5.223-2.059c-2.645,0-5.625,1.527-5.625,5.213a5.353,5.353,0,0,0,5.625,5.313,6.854,6.854,0,0,0,5.223-2.125v1.727h3.515Zm-7.365-1.992c-1.976,0-3.449-1.129-3.449-2.856,0-1.76,1.473-2.889,3.449-2.889a4.751,4.751,0,0,1,3.85,1.66V22.36A4.751,4.751,0,0,1,162.646,24.02Zm-61.3,28.559L92.2,30.429H89.827l-9.14,22.149H82.9l2.21-5.446H96.924l2.21,5.446h2.21Zm-5.056-7.173H85.742l5.29-12.951Zm6.663,7.173V30.429H101.21V52.578h1.741Zm8.4,0,6.83-16.039h-1.975l-5.826,14.013L104.491,36.54h-1.942l6.83,16.039h1.975Zm13.593,0.4a8.378,8.378,0,0,0,6.328-2.59l-0.905-1.129a7.132,7.132,0,0,1-5.289,2.225c-3.817,0-6.161-2.889-6.328-6.376h13.526V44.642c0-4.649-2.712-8.5-7.634-8.5-4.486,0-7.767,3.752-7.767,8.4C116.878,49.49,120.226,52.977,124.947,52.977Zm5.557-9.232H118.753c0.134-2.789,2.042-6.11,5.859-6.11C128.663,37.635,130.471,41.022,130.5,43.745Zm7.734,9.232c4.051,0,6.06-2.125,6.06-4.715,0-6.176-10.178-3.719-10.178-7.737,0-1.66,1.507-2.922,4.018-2.922a5.911,5.911,0,0,1,4.821,2.125L143.93,38.5a7.464,7.464,0,0,0-5.792-2.358c-3.649,0-5.759,1.993-5.759,4.45,0,5.778,10.212,3.288,10.212,7.671,0,1.86-1.607,3.254-4.319,3.254a6.757,6.757,0,0,1-5.223-2.358l-1.038,1.262A7.781,7.781,0,0,0,138.238,52.977ZM12.891,0.021l0.036,0.11h0.036V0.2l0.073,0.037V0.315l0.109,0.073V0.462L13.219,0.5l0.036,0.11h0.036V0.682l0.073,0.037V0.792l0.073,0.037V0.9L13.51,0.939V1.013l0.073,0.037V1.123L13.692,1.2V1.27l0.073,0.037L13.8,1.417h0.036V1.491L13.91,1.527V1.6l0.073,0.037V1.711l0.073,0.037V1.821l0.073,0.037V1.931L14.238,2V2.078l0.073,0.037,0.036,0.11h0.037V2.3l0.073,0.037V2.409l0.073,0.037V2.519L14.6,2.556V2.63L14.711,2.7V2.777l0.073,0.037,0.036,0.11h0.036V3l0.073,0.037V3.107L15,3.144V3.218l0.073,0.037V3.328l0.073,0.037V3.438l0.109,0.073V3.585l0.073,0.037V3.7L15.4,3.732V3.805l0.073,0.037V3.916h0.036l0.037,0.11,0.073,0.037V4.136l0.073,0.037V4.247L15.8,4.32V4.393L15.875,4.43l0.036,0.11h0.037V4.614l0.073,0.037V4.724l0.073,0.037V4.834l0.073,0.037V4.945l0.073,0.037V5.055l0.109,0.074V5.2l0.073,0.037V5.312l0.073,0.037V5.422H16.53l0.036,0.11L16.64,5.569V5.643L16.712,5.68V5.753l0.109,0.073V5.9l0.073,0.037,0.037,0.11h0.036V6.121L17.04,6.157V6.231l0.073,0.037V6.341l0.073,0.037V6.451l0.073,0.037V6.561l0.109,0.073V6.708L17.44,6.745l0.036,0.11h0.036V6.929l0.073,0.037V7.039l0.073,0.037V7.149l0.073,0.037V7.26L17.8,7.3V7.37l0.109,0.073V7.517l0.073,0.037,0.036,0.11h0.036V7.737l0.073,0.037V7.848L18.2,7.884V7.958l0.073,0.037V8.068L18.35,8.1V8.178l0.109,0.073V8.325l0.073,0.037,0.036,0.11H18.6V8.546l0.073,0.037V8.656L18.75,8.693V8.766L18.823,8.8V8.877L18.932,8.95V9.024L19,9.06l0.036,0.11h0.036V9.244l0.073,0.037V9.354l0.073,0.037V9.465L19.3,9.5V9.575l0.073,0.037V9.685l0.109,0.073V9.832l0.073,0.037,0.036,0.11h0.036v0.074L19.7,10.089v0.074L19.769,10.2v0.073l0.073,0.037v0.074l0.073,0.037v0.073l0.109,0.074v0.073L20.1,10.677l0.037,0.11h0.036v0.074L20.242,10.9v0.073l0.073,0.037v0.074l0.073,0.037v0.074L20.5,11.265v0.073l0.073,0.037,0.036,0.11h0.036v0.074L20.715,11.6v0.074l0.073,0.037V11.78l0.073,0.037V11.89l0.073,0.037V12l0.109,0.073v0.074l0.073,0.037,0.036,0.11h0.036v0.073L21.261,12.4v0.074l0.073,0.037v0.073l0.073,0.037V12.7l0.073,0.037v0.074l0.109,0.073v0.073l0.073,0.037L21.7,13.1h0.036v0.074l0.073,0.037v0.073l0.073,0.037V13.4l0.073,0.037v0.073l0.073,0.037v0.073l0.109,0.074v0.073L22.207,13.8l0.036,0.11H22.28v0.074l0.073,0.037v0.073l0.073,0.037V14.2L22.5,14.242v0.073l0.109,0.074v0.073L22.68,14.5l0.036,0.11h0.036v0.073l0.073,0.037v0.073L22.9,14.83V14.9l0.073,0.037v0.073l0.073,0.037v0.073L23.153,15.2v0.073l0.073,0.037,0.036,0.11H23.3v0.073l0.073,0.037V15.6l0.073,0.037v0.073l0.073,0.037v0.073l0.073,0.037v0.074L23.7,16.005v0.074l0.073,0.037,0.036,0.11h0.036V16.3l0.073,0.037V16.41l0.073,0.037V16.52l0.073,0.037V16.63l0.073,0.037V16.74l0.109,0.073v0.073l0.073,0.037,0.036,0.11h0.036v0.073l0.073,0.037v0.073l0.073,0.037v0.073l0.073,0.037v0.074l0.109,0.073v0.073l0.073,0.037,0.036,0.11h0.037v0.073l0.073,0.037v0.073l0.073,0.037v0.073l0.073,0.037v0.074l0.073,0.037v0.073l0.109,0.073v0.073l0.073,0.037,0.036,0.11H25.41v0.073l0.073,0.037v0.073h0.036l0.036,0.11,0.073,0.037v0.073L25.7,18.982v0.073l0.109,0.073V19.2l0.073,0.037,0.036,0.11h0.036v0.073l0.073,0.037v0.073L26.1,19.57v0.073l0.073,0.037v0.073l0.073,0.037v0.074l0.109,0.073v0.073l0.073,0.037,0.036,0.11H26.5v0.073l0.073,0.037v0.073l0.073,0.037v0.073l0.073,0.037v0.073l0.109,0.073v0.073L26.9,20.746v0.073l0.073,0.037V20.93l0.073,0.037V21.04h0.036l0.036,0.11,0.073,0.037V21.26L27.266,21.3V21.37l0.109,0.073v0.074l0.073,0.037,0.036,0.11H27.52v0.073l0.073,0.037v0.073l0.073,0.037v0.073L27.739,22v0.074l0.073,0.037v0.073l0.109,0.074v0.073l0.073,0.037v0.073l0.073,0.037v0.073H28.1l0.036,0.11,0.073,0.037v0.073L28.284,22.8v0.073l0.109,0.073v0.073l0.073,0.037,0.036,0.11h0.036v0.073l0.073,0.037v0.073l0.073,0.037v0.073L28.758,23.5v0.073l0.073,0.037v0.074l0.109,0.073v0.073l0.073,0.037v0.073l0.073,0.037v0.073l0.073,0.037v0.073h0.036l0.037,0.11L29.3,24.31v0.074l0.073,0.037v0.073l0.109,0.073v0.073l0.073,0.037,0.036,0.11h0.037v0.073L29.7,24.9v0.073l0.073,0.037v0.073l0.073,0.037v0.073l0.073,0.037V25.3l0.109,0.074v0.073L30.1,25.486,30.14,25.6h0.036V25.67l0.073,0.037V25.78l0.073,0.037V25.89L30.4,25.927V26L30.5,26.074v0.073l0.073,0.037,0.036,0.11H30.65v0.073L30.723,26.4v0.074L30.8,26.515v0.073l0.073,0.037V26.7l0.073,0.037v0.073l0.109,0.073v0.073l0.073,0.037,0.036,0.11H31.2v0.073l0.073,0.037v0.073l0.073,0.037V27.4l0.073,0.037v0.074l0.073,0.037v0.073L31.6,27.691v0.073L31.669,27.8l0.036,0.11h0.036v0.073l0.073,0.037V28.1l0.073,0.037v0.073l0.073,0.037v0.073l0.073,0.037v0.073L32.142,28.5v0.073l0.073,0.037,0.036,0.11h0.036v0.073L32.36,28.83V28.9l0.073,0.037v0.073l0.073,0.037v0.073L32.615,29.2v0.073l0.073,0.037,0.036,0.11H32.76v0.073l0.073,0.037V29.6l0.073,0.037v0.073l0.073,0.037v0.073l0.073,0.037v0.073l0.109,0.073V30.08l0.073,0.037,0.036,0.11h0.036V30.3l0.073,0.037V30.41l0.073,0.037V30.52l0.073,0.037v0.073L33.6,30.667v0.073l0.109,0.073v0.074l0.073,0.037,0.036,0.11h0.036v0.073l0.073,0.037v0.073L34,31.255v0.073l0.073,0.037v0.074l0.073,0.037v0.073l0.109,0.074V31.7l0.073,0.037,0.036,0.11H34.4v0.074l0.073,0.037v0.074l0.073,0.037v0.074l0.073,0.037v0.074l0.109,0.073v0.073L34.8,32.431l0.036,0.11h0.036v0.073l0.073,0.037v0.074l0.073,0.037v0.074l0.073,0.037v0.073l0.073,0.037v0.073l0.109,0.073V33.2l0.073,0.037,0.037,0.11h0.036v0.074L35.49,33.46v0.074l0.073,0.037v0.073l0.073,0.037v0.074l0.073,0.037v0.074l0.109,0.073v0.074l0.073,0.037v0.074l0.073,0.037v0.074H36l0.036,0.11,0.073,0.037v0.074l0.073,0.037v0.074l0.109,0.073V34.71l0.073,0.037,0.036,0.11h0.036V34.93l0.073,0.037V35.04l0.073,0.037v0.074l0.073,0.037v0.074L36.727,35.3v0.073l0.109,0.073v0.074l0.073,0.037,0.036,0.11h0.036v0.074l0.073,0.037v0.073l0.073,0.037v0.074L37.2,36v0.074l0.073,0.037v0.074l0.109,0.073v0.074l0.073,0.037,0.036,0.11h0.036v0.073L37.6,36.584v0.074l0.073,0.037v0.074L37.746,36.8v0.074l0.073,0.037v0.073l0.109,0.074v0.073L38,37.172l0.036,0.11h0.036v0.074l0.073,0.037v0.074L38.219,37.5v0.073l0.073,0.037v0.074L38.4,37.76v0.073l0.073,0.037,0.036,0.11h0.036v0.074l0.073,0.037v0.073L38.692,38.2v0.074l0.073,0.037v0.074l0.073,0.037v0.074l0.109,0.073v0.073l0.073,0.037v0.073l0.073,0.037v0.073L39.165,38.9v0.074H39.2l0.036,0.11,0.073,0.037v0.073l0.073,0.037V39.3l0.109,0.073V39.45l0.073,0.037L39.6,39.6h0.036V39.67l0.073,0.037v0.074l0.073,0.037v0.073l0.073,0.037V40l0.073,0.037v0.074l0.109,0.074v0.074L40.111,40.3l0.036,0.11h0.036v0.074l0.073,0.037v0.073l0.073,0.037V40.7L40.4,40.736V40.81l0.109,0.073v0.073l0.073,0.037,0.036,0.11h0.036v0.074l0.073,0.037v0.074L40.8,41.324V41.4l0.073,0.037v0.073l0.073,0.037v0.073l0.109,0.074v0.073L41.13,41.8l0.036,0.11H41.2v0.074l0.073,0.037V42.1l0.073,0.037v0.074l0.073,0.037v0.073l0.073,0.037v0.074L41.6,42.5v0.073l0.073,0.037,0.037,0.11h0.036v0.073l0.073,0.037V42.9l0.073,0.037v0.074l0.073,0.037v0.073l0.073,0.037v0.073l0.109,0.074v0.073l0.073,0.037,0.036,0.11h0.037V19.313h0.036l0.036-.221H42.4v-0.11H42.44V18.909h0.036V18.8h0.036v-0.11H42.55V18.614h0.036l0.036-.22h0.036V18.321H42.7l0.036-.22h0.036V18.027H42.8l0.036-.22h0.036V17.733h0.037v-0.11H42.95v-0.11h0.036V17.439h0.036l0.036-.22H43.1v39.76H41.931l-0.073-.11H41.822V56.794l-0.073-.037V56.684l-0.073-.037V56.574L41.6,56.537V56.464l-0.109-.074V56.317l-0.073-.037-0.036-.11H41.349V56.1l-0.073-.037V55.986L41.2,55.949V55.876l-0.073-.037V55.766l-0.109-.074V55.619l-0.073-.037-0.036-.11H40.876V55.4L40.8,55.361V55.288l-0.073-.037V55.178l-0.073-.037V55.067l-0.073-.037V54.957l-0.109-.074V54.81L40.4,54.773l-0.036-.11H40.33V54.59l-0.073-.037V54.479l-0.073-.037V54.369l-0.073-.037V54.259l-0.073-.037V54.149l-0.109-.074V54l-0.073-.037-0.036-.11H39.784V53.781l-0.073-.037V53.671l-0.073-.037V53.561l-0.073-.037V53.45l-0.109-.074V53.3l-0.073-.037-0.036-.11H39.311V53.083l-0.073-.037V52.973l-0.073-.037V52.863l-0.073-.037V52.752l-0.073-.037V52.642l-0.109-.074V52.5l-0.073-.037-0.036-.11H38.765V52.275l-0.073-.037V52.164H38.656l-0.036-.11-0.073-.037V51.944l-0.073-.037V51.834l-0.109-.073V51.687l-0.073-.037-0.036-.11H38.219V51.466l-0.073-.037V51.356l-0.073-.037V51.246L38,51.209V51.135l-0.109-.074V50.988l-0.073-.037-0.036-.11H37.746V50.768l-0.073-.037V50.658L37.6,50.621V50.547l-0.073-.037V50.437L37.455,50.4V50.327l-0.109-.073V50.18l-0.073-.037V50.07L37.2,50.033V49.959l-0.073-.037V49.849H37.091l-0.036-.11L36.982,49.7V49.629l-0.073-.037V49.519L36.8,49.445V49.372l-0.073-.037-0.036-.11H36.654V49.151l-0.073-.037V49.041L36.509,49V48.931l-0.073-.037V48.82l-0.109-.074V48.673l-0.073-.037V48.563l-0.073-.037V48.453l-0.073-.037V48.343H36.072l-0.036-.11L35.963,48.2V48.122l-0.073-.037V48.012l-0.109-.073V47.865l-0.073-.037-0.036-.11H35.635V47.644l-0.073-.037V47.534L35.49,47.5V47.424l-0.073-.037V47.314l-0.073-.037V47.2l-0.109-.074V47.056l-0.073-.037-0.037-.11H35.089V46.836L35.017,46.8V46.726l-0.073-.037V46.616l-0.073-.037V46.505l-0.109-.074V46.358l-0.073-.037-0.036-.11H34.616V46.138L34.544,46.1V46.028l-0.073-.037V45.917L34.4,45.881V45.807l-0.073-.037V45.7l-0.109-.074V45.55l-0.073-.037-0.036-.11H34.071V45.329L34,45.293V45.219l-0.073-.037V45.109l-0.073-.037V45l-0.073-.037V44.888l-0.109-.073V44.742L33.6,44.7l-0.036-.11H33.525V44.521l-0.073-.037V44.411l-0.073-.037V44.3l-0.073-.037V44.19L33.2,44.117V44.043l-0.073-.037-0.036-.11H33.052V43.823l-0.073-.037V43.713l-0.073-.037V43.6l-0.073-.037V43.492l-0.073-.037V43.382l-0.109-.073V43.235L32.578,43.2l-0.036-.11H32.506V43.014l-0.073-.037V42.9l-0.073-.037V42.794l-0.073-.037V42.684l-0.073-.037V42.573L32.105,42.5V42.426l-0.073-.037L32,42.279H31.96V42.206l-0.073-.037V42.1l-0.073-.037V41.986l-0.073-.037V41.875L31.632,41.8V41.728l-0.073-.037-0.036-.11H31.487V41.508l-0.073-.037V41.4l-0.073-.037V41.287l-0.073-.037V41.177L31.2,41.14V41.067l-0.109-.073V40.92l-0.073-.037-0.037-.11H30.941V40.7l-0.073-.037V40.589L30.8,40.552V40.479l-0.073-.037V40.369l-0.073-.037V40.258l-0.109-.074V40.111l-0.073-.037-0.036-.11H30.4V39.891l-0.073-.037V39.781l-0.073-.037V39.67l-0.073-.037V39.56l-0.109-.073V39.413l-0.073-.037-0.036-.11H29.922V39.193l-0.073-.037V39.083l-0.073-.037V38.972L29.7,38.935V38.862l-0.073-.037V38.752l-0.109-.073V38.6l-0.073-.037-0.036-.11H29.376V38.384L29.3,38.348V38.274l-0.073-.037V38.164l-0.073-.037V38.054l-0.073-.037V37.943l-0.109-.074V37.8L28.9,37.76l-0.036-.11H28.83V37.576l-0.073-.037V37.466l-0.073-.037V37.355l-0.073-.037V37.245L28.5,37.172V37.1l-0.073-.037-0.036-.11H28.357V36.878l-0.073-.037V36.767l-0.073-.037V36.657l-0.073-.037V36.547l-0.073-.037V36.437l-0.109-.073V36.29l-0.073-.037-0.036-.11H27.811V36.069l-0.073-.037V35.959l-0.073-.037V35.849l-0.073-.037V35.739L27.52,35.7V35.628l-0.109-.074V35.481l-0.073-.037-0.036-.11H27.266V35.261l-0.073-.037V35.151l-0.073-.037V35.04L27.047,35V34.93l-0.073-.037V34.82l-0.109-.073V34.673l-0.073-.037-0.036-.11H26.72V34.452l-0.073-.037V34.342H26.61l-0.036-.11L26.5,34.2V34.122l-0.109-.074V33.975l-0.073-.037-0.036-.11H26.247V33.754l-0.073-.037V33.644L26.1,33.607V33.534L26.028,33.5V33.423l-0.073-.037V33.313l-0.109-.074V33.166l-0.073-.037-0.036-.11H25.7V32.946l-0.073-.037V32.836L25.555,32.8V32.725l-0.073-.037V32.615l-0.073-.037V32.5L25.3,32.431V32.358l-0.073-.037-0.036-.11H25.155V32.137L25.082,32.1V32.027H25.046l-0.036-.11-0.073-.037V31.807l-0.109-.073V31.66l-0.073-.037-0.036-.11H24.682V31.439L24.609,31.4V31.329l-0.073-.037V31.219l-0.073-.037V31.108l-0.073-.037V31l-0.109-.073V30.851l-0.073-.037-0.036-.11H24.136V30.631l-0.073-.037V30.52l-0.073-.037V30.41l-0.073-.037V30.3l-0.073-.037V30.19l-0.109-.073V30.043l-0.073-.037V29.933L23.59,29.9V29.822H23.554l-0.036-.11-0.073-.037V29.6l-0.073-.037V29.492l-0.109-.073V29.345l-0.073-.037-0.036-.11H23.117V29.124l-0.073-.037V29.014l-0.073-.037V28.9L22.9,28.867V28.793l-0.073-.037V28.683l-0.109-.074V28.536L22.644,28.5V28.426l-0.073-.037V28.316L22.5,28.279V28.205H22.462l-0.036-.11-0.073-.037V27.985l-0.073-.037V27.875L22.171,27.8V27.728L22.1,27.691l-0.037-.11H22.025V27.507l-0.073-.037V27.4L21.88,27.36V27.287l-0.073-.037V27.177L21.7,27.1V27.03l-0.073-.037-0.036-.11H21.552V26.809l-0.073-.037V26.7l-0.073-.037V26.589l-0.073-.037V26.478l-0.073-.037V26.368l-0.109-.073V26.221l-0.073-.037-0.036-.11H21.006V26l-0.073-.037V25.89l-0.073-.037V25.78l-0.073-.037V25.67l-0.073-.037V25.56l-0.109-.073V25.413l-0.073-.037-0.036-.11H20.46V25.192l-0.073-.037V25.082l-0.073-.037V24.972l-0.073-.037V24.861l-0.109-.073V24.714l-0.073-.037-0.036-.11H19.987V24.494l-0.073-.037V24.384l-0.073-.037V24.274l-0.073-.037V24.163L19.7,24.126V24.053l-0.109-.073V23.906l-0.073-.037-0.036-.11H19.442V23.686l-0.073-.037V23.575L19.3,23.539V23.465l-0.073-.037V23.355l-0.073-.037V23.245l-0.109-.073V23.1l-0.073-.037-0.036-.11H18.9V22.877l-0.073-.037V22.767L18.75,22.73V22.657l-0.073-.037V22.546l-0.109-.073V22.4L18.5,22.363l-0.036-.11H18.423V22.179l-0.073-.037V22.069l-0.073-.037V21.958L18.2,21.922V21.848l-0.073-.037V21.738l-0.109-.073V21.591l-0.073-.037-0.037-.11H17.877V21.37L17.8,21.334V21.26l-0.073-.037V21.15l-0.073-.037V21.04L17.586,21V20.93l-0.109-.073V20.783L17.4,20.746l-0.036-.11H17.331V20.562l-0.073-.037V20.452l-0.073-.037V20.342L17.113,20.3V20.231L17,20.158V20.084l-0.073-.037-0.037-.11H16.858V19.864l-0.073-.037V19.754l-0.073-.037V19.643l-0.073-.037V19.533L16.567,19.5V19.423l-0.109-.073V19.276l-0.073-.037-0.036-.11H16.312V19.056l-0.073-.037V18.945l-0.073-.037V18.835L16.094,18.8V18.725l-0.073-.037V18.614l-0.109-.073V18.467l-0.073-.037-0.036-.11H15.766V18.247l-0.073-.037V18.137L15.621,18.1V18.027l-0.073-.037V17.916l-0.109-.073V17.769l-0.073-.037V17.659l-0.073-.037V17.549l-0.073-.037V17.439H15.184l-0.036-.11-0.073-.037V17.218L15,17.181V17.108l-0.109-.073V16.961l-0.073-.037-0.036-.11H14.747V16.74L14.674,16.7V16.63L14.6,16.593V16.52l-0.073-.037V16.41l-0.073-.037V16.3l-0.109-.073V16.153l-0.073-.037-0.036-.11H14.2V15.932L14.129,15.9V15.822l-0.073-.037V15.711l-0.073-.037V15.6l-0.073-.037V15.491L13.8,15.418V15.344l-0.073-.037-0.036-.11H13.656V15.124l-0.073-.037V15.013l-0.073-.037V14.9l-0.073-.037V14.793l-0.109-.073V14.646l-0.073-.037-0.036-.11H13.182V14.425l-0.073-.037V14.315l-0.073-.037V14.2l-0.073-.037V14.095l-0.073-.037V13.984l-0.109-.074V13.837L12.709,13.8l-0.036-.11H12.637V13.617l-0.073-.037V13.507l-0.073-.037V13.4l-0.073-.037V13.286l-0.073-.037V13.176L12.236,13.1V13.029l-0.073-.037-0.036-.11H12.091V12.809l-0.073-.037V12.7l-0.073-.037V12.588l-0.073-.037V12.478L11.763,12.4V12.331l-0.073-.037-0.036-.11H11.618V12.11l-0.073-.037V12l-0.073-.037V11.89L11.4,11.853V11.78l-0.073-.037V11.669L11.217,11.6V11.522l-0.073-.037-0.036-.11H11.072V11.3L11,11.265V11.192H10.963l-0.036-.11-0.073-.037V10.971l-0.073-.037V10.861l-0.109-.074V10.714L10.6,10.677l-0.036-.11H10.526V10.493l-0.073-.037V10.383l-0.073-.037V10.273l-0.073-.037V10.163L10.2,10.089V10.016l-0.073-.037-0.036-.11H10.053V9.8L9.98,9.759V9.685L9.907,9.648V9.575L9.835,9.538V9.465L9.762,9.428V9.354L9.653,9.281V9.207L9.58,9.171,9.543,9.06H9.507V8.987L9.434,8.95V8.877L9.361,8.84V8.766L9.289,8.73V8.656L9.216,8.619V8.546L9.107,8.472V8.4L9.034,8.362,9,8.252H8.961V8.178L8.888,8.142V8.068L8.816,8.031V7.958L8.743,7.921V7.848L8.634,7.774V7.7L8.561,7.664l-0.036-.11H8.488V7.48L8.415,7.443V7.37L8.342,7.333V7.26L8.27,7.223V7.149L8.2,7.113V7.039L8.088,6.966V6.892L8.015,6.856l-0.036-.11H7.942V6.672L7.869,6.635V6.561L7.8,6.525V6.451L7.724,6.415V6.341L7.651,6.3V6.231L7.542,6.157V6.084L7.469,6.047V5.974L7.4,5.937V5.863L7.324,5.827,7.142,5.5H7.105V50.878a3.161,3.161,0,0,1,.073.7c0.053,0.188.091,0.447,0.146,0.625v0.184H7.36L7.4,52.679H7.433v0.11H7.469V52.9H7.505v0.11H7.542l0.036,0.22a6.726,6.726,0,0,0,.691,1.213L8.6,54.737l0.218,0.257a7.66,7.66,0,0,0,4.549,1.176v0.772a5.119,5.119,0,0,1-1.274.037H0.045A2.884,2.884,0,0,1,.009,56.17H0.337V56.133H1.064V56.1H1.392V56.059H1.683V56.023H1.9V55.986H2.083V55.949H2.265V55.913H2.411V55.876H2.556V55.839H2.7V55.8H2.811V55.766H2.92V55.729H3.029V55.692H3.139V55.655l0.146-.037V55.582H3.393V55.545l0.218-.074V55.435H3.685V55.4L3.9,55.324l0.036-.073H4.012l0.036-.073H4.121L4.158,55.1H4.23l0.036-.073H4.34l0.146-.184H4.558L4.7,54.663l0.291-.257V54.332l0.146-.11V54.149l0.109-.074V54l0.073-.037V53.891l0.073-.037,0.036-.147L5.5,53.671l0.036-.147H5.577V53.45H5.613l0.073-.221H5.722V53.12H5.759V53.046H5.8l0.036-.184H5.868l0.255-.955V51.687H6.159V51.466H6.2V51.209H6.232V50.8H6.268V7.113a4.172,4.172,0,0,0-.036-0.919V5.79L6.013,4.614H5.977L5.941,4.357H5.9V4.247H5.868V4.136H5.831V4.063H5.8V3.952H5.759V3.879H5.722V3.769H5.686l-0.073-.22H5.577V3.475H5.54L5.468,3.254,5.395,3.218V3.144L5.322,3.107V3.034H5.286l-0.036-.11L5.176,2.887V2.813L5.031,2.7C4.094,1.387,2.242.84,0.009,0.829V0.057A4.951,4.951,0,0,1,1.246.021H12.891Zm23.144,0H44.7a0.791,0.791,0,0,1-.109.294v0.11H44.551V0.5H44.515l-0.036.221H44.442V0.792H44.405l-0.036.22H44.333V1.086H44.3l-0.037.22H44.223V1.38H44.187l-0.036.22H44.114V1.674H44.078l-0.036.221H44.005V1.968H43.969l-0.036.22H43.9V2.262H43.86v0.11H43.823v0.11c-0.337.777-.61,1.648-0.946,2.425l-0.036.221H42.8V5.2H42.768l-0.036.22H42.7V5.5H42.659l-0.036.22H42.586V5.79H42.55l-0.036.22H42.477V6.084H42.44v0.11H42.4V6.3H42.368l-0.036.184H42.295a7.358,7.358,0,0,0-.873-3.417l-0.036-.147-0.073-.037V2.813L41.2,2.74V2.666l-0.146-.11C40.15,1.283,38.2.837,36.036,0.829V0.021Zm10.59,0h0.91a0.786,0.786,0,0,0,.109.294v0.11h0.036V0.5h0.036l0.036,0.221H47.79V0.792h0.036l0.036,0.22H47.9V1.086h0.036l0.036,0.22h0.036V1.38h0.036L48.081,1.6h0.036V1.674h0.036v0.11H48.19v0.11c0.354,0.813.631,1.724,0.983,2.535l0.036,0.221h0.036V4.724h0.036v0.11h0.036v0.11h0.036V5.018h0.036l0.036,0.22h0.036V5.312H49.5l0.036,0.22h0.036V5.606h0.036l0.036,0.221h0.036V5.9h0.036l0.036,0.22h0.036V6.194h0.036l0.036,0.22H49.9V6.488h0.036V6.6h0.036v0.11H50.01V6.782h0.036l0.073,0.331h0.036V7.186h0.036l0.036,0.221h0.036V7.48H50.3L50.337,7.7h0.036V7.774H50.41l0.037,0.22h0.036V8.068h0.036l0.036,0.22h0.036V8.362h0.036l0.036,0.22H50.7V8.656h0.036v0.11h0.036v0.11c0.559,1.289.97,2.715,1.528,4.005l0.036,0.22h0.036v0.074h0.036L52.448,13.4h0.036V13.47h0.036l0.036,0.22h0.036v0.073H52.63l0.036,0.221H52.7v0.073h0.036l0.036,0.22h0.036v0.074h0.036l0.036,0.221h0.036v0.073h0.036l0.037,0.22H53.03V14.94h0.036L53.1,15.16c0.518,1.195.9,2.518,1.419,3.712l0.036,0.22h0.036v0.074h0.036l0.036,0.221H54.7V19.46H54.74v0.11h0.036v0.11h0.036v0.073H54.85l0.036,0.221h0.036v0.073h0.036L55,20.268h0.036v0.073h0.036L55.1,20.562h0.036v0.073h0.036v0.11h0.036l0.036,0.221c0.5,1.159.881,2.441,1.383,3.6l0.036,0.22h0.036v0.073h0.036l0.036,0.221h0.036v0.073h0.036v0.11h0.036l0.036,0.221c0.337,0.777.61,1.648,0.946,2.425l0.036,0.221h0.036v0.073h0.037l0.036,0.22h0.036V28.5h0.036v0.11h0.036v0.11h0.036v0.073H58.2l0.036,0.221H58.27v0.073h0.036l0.037,0.221h0.036v0.073h0.036L58.452,29.6h0.036v0.073h0.036l0.036,0.22H58.6v0.073h0.036l0.036,0.22h0.036V30.3h0.036v0.073H58.78v0.11h0.036v0.11h0.036v0.073h0.036l0.036,0.221h0.036v0.073H59v0.11h0.036v0.11h0.036v0.074h0.036l0.036,0.22H59.18v0.073h0.036l0.036,0.221h0.036v0.073h0.036l0.036,0.221H59.4v0.074h0.036l0.036,0.22h0.036v0.074h0.037l0.036,0.22h0.036v0.074h0.036l0.036,0.22h0.036v0.074h0.036v0.11H59.8v0.11h0.036v0.074h0.036l0.036,0.221h0.037v0.073h0.036l0.036,0.22h0.036V33.9H60.09l0.036,0.221h0.036V34.2H60.2l0.036,0.22h0.036v0.074h0.036l0.073,0.331c0.627,1.446,1.085,3.036,1.71,4.483l0.073,0.331H62.2v0.074h0.036l0.036,0.22H62.31V40h0.036l0.036,0.221h0.036V40.3h0.036l0.036,0.221c0.42,0.968.745,2.044,1.165,3.013l0.036,0.22h0.036v0.073h0.036l0.073,0.331h0.036v0.073h0.036l0.036,0.221h0.036v0.074H64.02l0.036,0.221h0.036v0.073h0.036l0.036,0.22H64.2v0.073h0.036l0.036,0.22h0.037V45.4h0.036l0.036,0.221c0.6,1.384,1.039,2.913,1.638,4.3l0.073,0.331c0.063,0.16.154,0.354,0.218,0.514v0.11h0.036v0.074h0.036v0.11h0.036v0.074h0.036l0.036,0.184h0.036v0.11h0.036V51.5H66.6v0.11H66.64v0.074h0.037V51.8h0.036l0.036,0.147h0.036v0.11h0.036l0.073,0.22h0.036v0.073h0.036v0.11H67l0.073,0.22h0.036v0.074h0.036L67.186,52.9l0.073,0.037V53.01H67.3v0.073h0.036v0.074h0.036V53.23l0.073,0.037V53.34h0.037v0.073h0.036l0.036,0.11,0.073,0.037v0.074L67.7,53.671v0.074l0.145,0.11v0.074L68.1,54.149l0.364,0.4h0.073L68.641,54.7h0.073l0.073,0.11H68.86L68.9,54.884l0.109,0.037v0.037l0.146,0.037a8.7,8.7,0,0,0,4.8,1.139,2.879,2.879,0,0,1,.036.809H53.612V56.133a6.036,6.036,0,0,0,3.275-.7l0.146-.037,0.036-.074h0.073l0.036-.073h0.073l0.146-.184H57.47l0.146-.184,0.073-.037V54.773l0.146-.11V54.59l0.073-.037,0.036-.11h0.037V54.369h0.036V54.3h0.036V54.222h0.036V54.149h0.036L58.161,54H58.2v-0.11h0.036v-0.11H58.27v-0.11h0.036V53.524h0.037V53.3h0.036V52.936a0.712,0.712,0,0,0,.036-0.331H58.379V52.2l-0.218-.992H58.125l-0.036-.221H58.052V50.915H58.015l-0.036-.22H57.943l-0.036-.147H57.87v-0.11H57.834V50.364H57.8l-0.036-.147H57.724v-0.11H57.688V50.033H57.652l-0.036-.147H57.579v-0.11H57.542V49.7H57.506l-0.036-.221H57.433V49.408H57.4l-0.036-.22H57.324v-0.11H57.288V49H57.251l-0.036-.221H57.179V48.71H57.142l-0.073-.331H57.033V48.306H57l-0.036-.221H56.924V48.012H56.887l-0.073-.331H56.778V47.608H56.742l-0.036-.22H56.669V47.314H56.633V47.2H56.6v-0.11H56.56V47.02H56.523l-0.073-.331H56.414V46.616H56.378l-0.036-.22H56.305V46.322H56.269L56.2,45.991H56.16V45.917H56.123L56.087,45.7H56.05V45.623H56.014L55.978,45.4H55.941V45.329H55.9l-0.036-.22H55.832V45H55.8V44.925H55.759v-0.11H55.723V44.7H55.686V44.631H55.65L55.577,44.3H55.541V44.227H55.5l-0.036-.22H55.432V43.933H55.4L55.323,43.6H55.286V43.529H55.25l-0.036-.22H55.177V43.235H55.141l-0.036-.22H55.068V42.941H55.031L55,42.72H54.959V42.61H54.922V42.537H54.886v-0.11H54.85v-0.11H54.813V42.243H54.777L54.7,41.912H54.668V41.839H54.631l-0.036-.221H54.558V41.544H54.522v-0.11a0.948,0.948,0,0,1-.109-0.294h-9.5V40.332h9.17V40.3H54.049l-0.036-.184H53.976V40H53.94V39.928H53.9v-0.11H53.867v-0.11H53.831V39.6H53.794V39.523H53.758L53.721,39.3H53.685V39.23H53.649l-0.036-.221H53.576V38.935H53.539L53.5,38.715H53.467V38.641H53.43l-0.036-.22H53.357V38.348H53.321l-0.073-.331c-0.616-1.419-1.059-2.989-1.674-4.41l-0.4-1.213c-0.31-.715-0.564-1.526-0.873-2.241l-0.036-.22H50.228V29.859H50.191l-0.036-.221H50.119v-0.11H50.082V29.455H50.046l-0.036-.22H49.973V29.161H49.937L49.9,28.94H49.864V28.867H49.828l-0.036-.221H49.755V28.573H49.718l-0.036-.221H49.646V28.279H49.609l-0.036-.221H49.537v-0.11H49.5V27.875H49.464v-0.11H49.427v-0.11H49.391V27.581H49.355l-0.036-.221H49.282V27.287H49.245l-0.036-.221H49.173V26.993H49.136l-0.036-.22H49.063V26.7H49.027l-0.036-.22H48.954V26.4H48.918l-0.073-.331c-0.574-1.324-.992-2.791-1.565-4.116l-0.036-.22H47.207V21.665H47.171v-0.11H47.135v-0.11H47.1V21.37H47.062l-0.073-.331H46.953V20.966H46.916l-0.036-.221H46.844V20.672H46.807l-0.036-.221H46.734V20.378H46.7l-0.036-.22H46.625V20.084H46.589l-0.036-.22H46.516V19.79H46.48l-0.073-.331c-0.574-1.325-.992-2.79-1.565-4.116l-0.036-.22H44.769V15.05H44.733L44.7,14.83H44.66V14.756H44.624v-0.11H44.587l-0.036-.22H44.515V14.352H44.478l-0.036-.221H44.405V14.058H44.369l-0.036-.22H44.3V13.764H44.26l-0.036-.22H44.187V13.47H44.151l-0.036-.221H44.078V13.176H44.042l-0.036-.221H43.969v-0.11H43.932V12.772H43.9v-0.11H43.86v-0.11H43.823V12.478H43.787l-0.036-.22H43.714V12.184H43.678l-0.036-.22H43.6V11.89H43.568l-0.036-.22H43.5V11.6H43.459a1.659,1.659,0,0,1-.073-0.294H43.35v0.037H43.314l-0.036.221H43.241v0.073H43.2v0.11H43.168v0.11H43.132v0.074H43.1l-0.036.22H43.023v0.074H42.986l-0.036.22H42.913v0.073H42.877l-0.036.22H42.8v0.074H42.768l-0.036.22c-0.462,1.063-.813,2.243-1.274,3.307l-0.036.221H41.385V16.63H41.349l-0.036.221H41.276v0.073H41.239v0.11H41.2v0.11H41.167v0.073H41.13l-0.036.22H41.057v0.073H41.021l-0.036.221H40.948v0.073H40.912l-0.036.22H40.839V18.1H40.8l-0.036.22H40.73v0.073H40.694l-0.036.22H40.621v0.073H40.584V18.8H40.548v0.11c-0.545,1.255-.949,2.64-1.492,3.9l-0.036.22H38.983V23.1H38.947l-0.036.221H38.874v0.073H38.838l-0.036.22H38.765v0.074H38.729l-0.036.22H38.656V23.98H38.619l-0.036.22H38.547v0.074H38.51v0.11H38.474v0.11H38.437v0.073H38.4l-0.036.22H38.328v0.073H38.292l-0.036.221H38.219v0.073H38.183l-0.036.221H38.11v0.073H38.073l-0.036.22H38v0.074H37.964l-0.037.22c-0.337.777-.61,1.648-0.946,2.425l-0.036.22H36.909v0.074H36.873l-0.036.22H36.8v0.073H36.763v0.11H36.727V29.2H36.691v0.073H36.654l-0.036.22H36.582v0.074H36.545l-0.036.221H36.472v0.073H36.436l-0.036.22H36.363v0.073H36.327l-0.036.22a3.445,3.445,0,0,0-.255.662H36V31a0.442,0.442,0,0,1-.073-0.11H35.89V30.814l-0.109-.073V30.667l-0.073-.037V30.557l-0.073-.037V30.447l-0.073-.037V30.337H35.526a0.321,0.321,0,0,1-.036-0.184h0.036l0.037-.22H35.6V29.859h0.036l0.036-.221h0.036V29.565h0.036l0.037-.221h0.036v-0.11h0.036V29.161H35.89l0.036-.22h0.036V28.867H36l0.036-.221h0.036V28.573h0.036l0.036-.221h0.036V28.279h0.036l0.036-.221H36.29V27.985h0.036v-0.11h0.036v-0.11c0.535-1.23.924-2.592,1.456-3.822l0.073-.331h0.036V23.539h0.037L38,23.318h0.036V23.245h0.036l0.036-.221h0.036V22.951h0.036l0.036-.22h0.036V22.657h0.036l0.036-.22h0.037V22.363H38.4l0.036-.221h0.036V22.069H38.51v-0.11h0.036l0.036-.22h0.036V21.665h0.036l0.036-.221h0.036V21.37h0.036l0.036-.22h0.036V21.077h0.036l0.036-.22h0.036V20.783h0.036l0.036-.22h0.036V20.489h0.036l0.036-.221h0.036v-0.11H39.2V20.084h0.036v-0.11h0.036v-0.11h0.036V19.79h0.037l0.036-.22H39.42V19.5h0.036l0.036-.221h0.036V19.2h0.036l0.036-.22h0.036V18.909h0.036l0.036-.221h0.037V18.614h0.036l0.073-.331c0.434-1,.767-2.121,1.2-3.124l0.036-.22H41.13V14.866h0.036l0.073-.331h0.036V14.462h0.037l0.036-.22h0.036V14.168h0.036l0.036-.22h0.036V13.874h0.036l0.036-.221H41.6V13.58H41.64l0.036-.22h0.037V13.286h0.036l0.036-.22h0.036V12.992h0.036l0.036-.22h0.037v-0.11h0.036V12.588H42v-0.11H42.04v-0.11c0.31-.715.563-1.525,0.873-2.242l0.036-.22h0.036V9.832h0.036V9.722h0.036V9.612H43.1V9.538h0.036l0.036-.221H43.2V9.244h0.036l0.036-.22h0.036V8.95H43.35l0.036-.22h0.036V8.656h0.036l0.036-.22h0.036V8.362h0.036L43.6,8.142h0.036V8.068h0.036V7.958h0.036V7.848H43.75V7.774h0.036l0.036-.22H43.86V7.48H43.9V7.37h0.036V7.26c0.5-1.159.881-2.441,1.383-3.6l0.036-.22h0.036V3.365h0.036l0.036-.22H45.5V3.071h0.036L45.57,2.85h0.036V2.777h0.036l0.036-.22h0.036V2.483h0.036l0.036-.22h0.036V2.189h0.037l0.036-.22h0.036V1.895H45.97l0.036-.221h0.036V1.6h0.036l0.036-.22h0.036V1.307h0.036l0.036-.22h0.037V1.013H46.3V0.9h0.036V0.792h0.036V0.719h0.036L46.443,0.5H46.48V0.425h0.036V0.315A0.943,0.943,0,0,0,46.625.021ZM32.506,56.941H19.951V56.133a8.534,8.534,0,0,0,5.24-1.323l0.182-.221h0.073l0.036-.073,0.182-.147V54.3l0.255-.22V54l0.146-.11V53.818l0.109-.073V53.671l0.073-.037V53.561l0.109-.073V53.414l0.073-.037V53.3l0.073-.037,0.036-.11h0.036l0.036-.147h0.037l0.036-.11,0.073-.037,0.036-.147,0.073-.037,0.073-.22,0.073-.037V52.348h0.037V52.275h0.036V52.2H27.12V52.128l0.073-.037V52.017h0.036V51.944h0.036V51.87H27.3V51.8h0.036V51.723h0.036V51.65h0.036V51.576h0.037l0.036-.147H27.52l0.036-.147h0.036V51.209H27.63V51.135h0.036V51.062H27.7V50.988h0.036l0.036-.147h0.036V50.768h0.037v-0.11h0.036V50.584h0.036V50.511h0.036l0.073-.22h0.036V50.18H28.1V50.107h0.036l0.036-.147h0.036v-0.11h0.037V49.776h0.036l0.036-.184h0.036l0.073-.331c0.31-.716.564-1.525,0.873-2.241l0.036-.22h0.036V46.726h0.037v-0.11h0.036v-0.11h0.036V46.432h0.036l0.036-.22h0.036V46.138h0.037l0.073-.331H29.74V45.734h0.036l0.037-.221h0.036V45.44h0.036l0.036-.22h0.036V45.146h0.036l0.036-.221h0.036V44.852H30.1v-0.11H30.14v-0.11h0.036V44.558h0.037l0.036-.22h0.036V44.264h0.036l0.036-.221H30.4v-0.11h0.037V43.86h0.036v-0.11H30.5v-0.11h0.036l0.036-.184h0.036v0.037a1.155,1.155,0,0,1,.182.294l0.073,0.037V43.9l0.073,0.037v0.074l0.073,0.037a0.457,0.457,0,0,1,.109.331H31.087l-0.036.184H31.014v0.11H30.977v0.074H30.941v0.11H30.9v0.11H30.868v0.074H30.832l-0.037.184H30.759l-0.036.22H30.686v0.074H30.65l-0.036.221H30.577v0.073H30.541v0.11H30.5v0.073H30.468l-0.036.221H30.4v0.073H30.359V46.4H30.322v0.11H30.286v0.073H30.25l-0.036.184H30.177l-0.036.22H30.1v0.073H30.068v0.11H30.031V47.24H29.995l-0.036.221H29.922v0.073H29.886l-0.036.221H29.813v0.074H29.776v0.11H29.74v0.073H29.7v0.11H29.667v0.11H29.631v0.073H29.594l-0.036.221H29.522V48.6H29.485l-0.036.184H29.413L29.376,49H29.34v0.073H29.3v0.11H29.267v0.073H29.231l-0.037.221H29.158v0.074H29.121l-0.036.22H29.049v0.074H29.012v0.11H28.976v0.147H28.939v0.11H28.9v0.11H28.867v0.11H28.83v0.11H28.794v0.147H28.758l-0.036.257H28.685v0.11H28.648l-0.037.257H28.576v0.147H28.539l-0.073.441H28.43l-0.073.478a4.032,4.032,0,0,0-.036,2.315c0.621,1.174,2.352,1.431,4.148,1.433A2.883,2.883,0,0,1,32.506,56.941Z"/>
</svg>
