<svg xmlns="http://www.w3.org/2000/svg" width="98" height="37" viewBox="0 0 98 37">
  <metadata><?xpacket begin="﻿" id="W5M0MpCehiHzreSzNTczkc9d"?>
<x:xmpmeta xmlns:x="adobe:ns:meta/" x:xmptk="Adobe XMP Core 5.6-c142 79.160924, 2017/07/13-01:06:39        ">
   <rdf:RDF xmlns:rdf="http://www.w3.org/1999/02/22-rdf-syntax-ns#">
      <rdf:Description rdf:about=""/>
   </rdf:RDF>
</x:xmpmeta>
                                                                                                    
                                                                                                    
                                                                                                    
                                                                                                    
                                                                                                    
                                                                                                    
                                                                                                    
                                                                                                    
                                                                                                    
                                                                                                    
                                                                                                    
                                                                                                    
                                                                                                    
                                                                                                    
                                                                                                    
                                                                                                    
                                                                                                    
                                                                                                    
                                                                                                    
                                                                                                    
                           
<?xpacket end="w"?></metadata>
<defs>
    <style>
      .cls-1 {
        fill: #fff;
        fill-rule: evenodd;
      }
    </style>
  </defs>
  <path id="Forma_1" data-name="Forma 1" class="cls-1" d="M17.881,3.73V3.8a2.779,2.779,0,0,1,.3.162V4.023a0.154,0.154,0,0,1,.166.13,0.833,0.833,0,0,1,.2.1V4.315a0.258,0.258,0,0,1,.132.065V4.412l0.1,0.033,0.033,0.1h0.066l0.2,0.227,0.1,0.032,0.066,0.13L19.4,5.03V5.095l0.265,0.227V5.387l0.1,0.032,0.033,0.1h0.033a0.344,0.344,0,0,1,.1.162c0.134,0.034.041,0.014,0.1,0.1h0.033l0.033,0.1h0.066l0.033,0.1,0.132,0.1V6.134L20.43,6.2V6.264l0.132,0.1V6.427l0.066,0.032V6.524l0.066,0.033,0.033,0.1,0.1,0.065V6.784l0.066,0.033,0.033,0.1H20.96V6.979l0.066,0.032V7.076l0.066,0.032V7.174l0.066,0.032V7.271L21.224,7.3l0.033,0.13,0.1,0.065,0.033,0.13h0.033V7.694l0.066,0.032V7.791l0.066,0.032,0.066,0.2h0.033l0.033,0.1,0.066,0.032V8.214h0.033V8.279H21.82V8.344h0.033V8.408h0.033l0.033,0.13,0.066,0.032V8.636h0.033l0.033,0.13h0.033v0.1L22.151,8.9l0.066,0.195h0.033V9.156h0.033V9.221h0.033l0.066,0.195h0.033v0.1h0.033V9.578h0.033l0.066,0.195h0.033v0.1h0.033V9.935h0.033l0.033,0.13h0.033v0.1h0.033v0.065H22.78l0.033,0.13h0.033v0.1H22.88V10.52h0.033v0.065h0.033V10.65h0.033v0.1h0.033v0.065h0.033v0.1h0.033l0.033,0.13h0.033l0.033,0.195h0.033V11.3h0.033l0.033,0.163H23.31v0.13h0.033v0.065h0.033v0.1h0.033V11.82h0.033l0.033,0.2h0.033V12.08h0.033v0.1h0.033v0.1h0.033v0.1h0.033l0.166,0.585H23.84v0.065h0.033l0.033,0.26h0.033v0.1h0.033v0.1h0.033v0.1h0.033L24.071,13.8H24.1l0.066,0.325H24.2l0.066,0.39H24.3v0.065h0.033v0.162h0.033v0.1H24.4v0.1h0.033l0.066,0.39h0.033l0.1,0.552h0.033l0.066,0.39h0.033v0.1H24.8v0.163h0.033v0.13h0.033v0.13H24.9l0.033,0.325h0.033v0.13H25l0.033,0.26h0.033l0.066,0.39h0.033L25.2,18.22H25.23v0.1h0.033l0.033,0.26c0.116,0.332.184,0.743,0.3,1.072l0.066,0.422h0.033V20.2h0.033v0.1H25.76v0.13h0.033v0.13h0.033l0.033,0.292h0.033v0.1h0.033l0.033,0.26h0.033L26.024,21.5h0.033v0.1h0.033v0.13h0.033v0.13h0.033v0.13H26.19v0.13h0.033v0.13h0.033l0.033,0.292h0.033v0.1h0.033v0.1h0.033v0.13h0.033l0.033,0.26h0.033v0.163h0.033l0.033,0.227h0.033v0.1H26.62v0.13h0.033v0.162h0.033l0.033,0.227h0.033v0.1h0.033v0.13h0.033v0.13h0.033v0.13h0.033v0.1h0.033v0.1h0.033l0.1,0.455h0.033l0.033,0.26H27.15v0.065h0.033v0.13h0.033v0.1h0.033v0.1h0.033v0.13h0.033l0.066,0.293h0.033v0.065h0.033v0.1h0.033L27.547,26.8H27.58l0.033,0.13h0.033v0.1h0.033v0.065h0.033v0.1h0.033v0.065h0.033v0.1h0.033v0.065h0.033v0.1h0.033l0.033,0.13h0.033v0.1h0.033l0.033,0.13h0.033v0.1h0.033v0.065H28.11v0.1h0.033l0.033,0.13h0.033v0.065h0.033v0.1h0.033v0.065h0.033v0.065h0.033l0.066,0.2h0.033v0.1h0.033v0.065h0.033l0.033,0.13h0.033v0.1h0.033l0.033,0.13h0.033v0.065h0.033V29.4h0.033v0.065h0.033l0.066,0.195h0.033v0.1H28.9l0.066,0.195H29l0.033,0.13L29.1,30.11l0.033,0.1h0.033L29.2,30.37,29.268,30.4v0.065H29.3v0.065h0.033V30.6h0.033v0.065L29.434,30.7V30.76h0.033v0.065H29.5v0.1l0.066,0.032,0.033,0.1h0.033L29.7,31.247l0.066,0.032v0.065l0.066,0.033v0.065L29.9,31.475l0.033,0.13,0.1,0.065v0.065h0.033l0.033,0.1,0.066,0.032V31.93l0.1,0.065V32.06l0.066,0.032v0.065l0.066,0.032,0.033,0.1,0.1,0.065v0.065l0.1,0.065v0.065l0.066,0.032,0.033,0.1,0.132,0.1v0.065l0.166,0.13v0.065l0.166,0.13v0.065l0.232,0.2v0.065l0.5,0.455a10.727,10.727,0,0,0,1.291,1.169l0.132,0.162h0.066l0.1,0.13h0.066L33.6,35.471h0.033l0.033,0.065h0.066l0.066,0.1H33.87l0.066,0.1H34l0.066,0.1h0.066l0.066,0.1h0.066L34.3,35.991h0.066L34.4,36.056l0.132,0.065v0.033H34.3v0.032H34.1v0.033H33.87v0.033H33.506v0.032l-0.563.033H32.579v0.032a3.908,3.908,0,0,1-.96-0.032h-0.6V36.283H30.692V36.251H30.427V36.218h-0.3V36.186H30V36.153H29.831V36.121h-0.2V36.088H29.467V36.056H29.335V36.023H29.2L27.944,35.6V35.568l-0.2-.065V35.471H27.679V35.438l-0.165-.032-0.033-.065h-0.1V35.308l-0.132-.033V35.243H27.183l-0.033-.065-0.2-.065-0.033-.065H26.852V35.016H26.786l-0.033-.065-0.132-.033-0.033-.065H26.521l-0.066-.1H26.388l-0.033-.065H26.289l-0.066-.1H26.157l-0.1-.13-0.1-.033-0.033-.065H25.859l-0.2-.227H25.594l-0.1-.13H25.428l-0.4-.422L24.4,33V32.937l-0.2-.163V32.709l-0.166-.13V32.514l-0.132-.1V32.352l-0.132-.1V32.19l-0.1-.065V32.06l-0.066-.033V31.962l-0.1-.065V31.832L23.442,31.8V31.735l-0.1-.065V31.6l-0.066-.032V31.507l-0.066-.033-0.033-.13H23.144l-0.033-.1-0.066-.032V31.15H23.012V31.085l-0.066-.032-0.033-.13-0.066-.032L22.78,30.7l-0.066-.033V30.6H22.681V30.533H22.648V30.468H22.615V30.4H22.582V30.338l-0.066-.033-0.232-.52-0.066-.032-0.033-.162H22.151l-0.033-.13H22.085V29.4H22.052V29.331H22.019V29.266H21.986V29.2H21.953V29.136H21.92l-0.033-.13H21.853V28.941H21.82v-0.1H21.787l-0.033-.13H21.721V28.648H21.688V28.583H21.655V28.518H21.622l-0.066-.195H21.522v-0.1H21.489V28.161H21.456V28.1H21.423l-0.033-.13H21.357l-0.066-.293H21.258V27.609H21.224v-0.13H21.191V27.414H21.158l-0.066-.292H21.059v-0.1H21.026V26.959H20.993l-0.066-.293H20.893v-0.1H20.86v-0.1H20.827v-0.1H20.794v-0.1H20.761V26.212H20.728l-0.066-.325H20.629L20.6,25.692H20.562v-0.1H20.529V25.5H20.5V25.4H20.463V25.3H20.43V25.2H20.4v-0.1H20.364l-0.033-.195H20.3v-0.13H20.264v-0.1H20.231v-0.1H20.2v-0.1H20.165v-0.1H20.132l-0.1-.422H20V23.84H19.966v-0.1H19.933v-0.13H19.9V23.548H19.867L19.735,23H19.7v-0.13H19.669L19.6,22.508H19.569v-0.1H19.536v-0.1H19.5v-0.1H19.47v-0.13H19.437v-0.1H19.4l-0.033-.227H19.338l-0.066-.325H19.238l-0.033-.292H19.172V21.079H19.139l-0.066-.39H19.04l-0.033-.227H18.973v-0.1H18.94l-0.033-.227H18.874V19.942H18.841v-0.1H18.808v-0.1H18.775l-0.066-.325H18.675V19.227H18.642v-0.1H18.609v-0.1H18.576l-0.066-.39H18.477v-0.1H18.444l-0.066-.325H18.344L18.311,17.9H18.278V17.8H18.245V17.7H18.212V17.6H18.179l-0.033-.26H18.113v-0.1H18.08l-0.033-.227H18.013v-0.13H17.98V16.725H17.947v-0.1H17.914v-0.1H17.881v-0.1H17.848V16.3H17.815v-0.1H17.782v-0.13H17.749v-0.13H17.715v-0.1H17.682v-0.1H17.649v-0.1H17.616v-0.13H17.583l-0.033-.26H17.517v-0.1H17.484v-0.1H17.451v-0.1H17.418v-0.1H17.384l-0.066-.325H17.285v-0.13H17.252v-0.1H17.219v-0.1H17.186L17.153,14H17.12l-0.033-.227H17.053V13.7H17.02V13.541H16.987l-0.033-.195H16.921v-0.1H16.888v-0.1H16.855v-0.1H16.822v-0.1H16.789v-0.1H16.755v-0.1H16.722l-0.033-.195H16.656v-0.1H16.623v-0.1H16.59v-0.1H16.557v-0.1c-0.159-.393-0.292-0.854-0.463-1.234v-0.1H16.06V10.78H16.027l-0.066-.292H15.928l-0.033-.13H15.862v-0.1H15.829V10.2H15.8V10.1H15.762V10.033H15.729L15.7,9.838H15.663L15.6,9.643H15.531a0.478,0.478,0,0,1-.1.227l-0.1.292H15.3l-0.033.195H15.233l-0.033.13H15.167v0.1H15.133V10.65H15.1l-0.033.13H15.034v0.1H15l-0.033.13H14.935L14.9,11.2H14.869l-0.033.13H14.8v0.1H14.769v0.065H14.736l-0.033.13H14.67v0.1H14.637v0.065H14.6l-0.033.162H14.538v0.1H14.5l-0.033.13H14.438v0.065H14.405v0.1H14.372l-0.033.13H14.306v0.1H14.273v0.065H14.24v0.1H14.207l-0.033.13H14.14v0.1H14.107v0.065H14.074v0.1H14.041l-0.033.13H13.975v0.1H13.942l-0.033.13H13.875v0.1H13.842l-0.033.13H13.776v0.1H13.743v0.065H13.71v0.1H13.677l-0.033.13H13.611v0.1H13.578v0.065H13.544l-0.033.13H13.478v0.1H13.445v0.065H13.412l-0.033.162H13.346v0.1H13.313l-0.033.13H13.247V15H13.213v0.1H13.18l-0.033.13H13.114v0.1H13.081v0.065H13.048v0.1H13.015v0.065H12.982v0.1H12.949l-0.033.13H12.882v0.065H12.849v0.1H12.816l-0.033.13H12.75v0.1H12.717l-0.033.13H12.651v0.1H12.618l-0.033.13H12.551v0.1H12.518v0.065H12.485l-0.033.13H12.419l-0.132.39H12.253l-0.033.13H12.187v0.1H12.154v0.065H12.121l-0.033.13H12.055v0.1H12.022l-0.033.13H11.956v0.1H11.922v0.065H11.889l-0.033.13H11.823v0.1H11.79v0.065H11.757l-0.033.13H11.691v0.1H11.658l-0.033.13H11.591v0.1H11.558l-0.033.13H11.492l-0.1.325H11.36v0.065H11.326v0.1H11.293l-0.033.13H11.227v0.1H11.194v0.065H11.161v0.1H11.128l-0.033.13H11.062v0.1H11.029v0.065H11v0.1H10.962l-0.033.13H10.9v0.1H10.863l-0.033.13H10.8v0.1H10.764v0.065H10.731v0.1l-0.066.033v0.13H10.631v0.065H10.6v0.065H10.565v0.065H10.532v0.1H10.5l-0.033.13H10.433v0.1H10.4v0.065H10.367v0.1H10.333l-0.033.13H10.267v0.1H10.234l-0.033.13H10.168v0.1H10.135v0.065H10.1v0.1H10.069l-0.033.13H10v0.1H9.969v0.065H9.936v0.1H9.9V22.7H9.87l-0.033.13H9.8v0.1H9.771V23H9.738L9.7,23.158H9.671v0.1H9.638V23.32H9.605l-0.033.13H9.539l-0.033.195H9.473l-0.033.13H9.407v0.1H9.373L9.34,24H9.307v0.1H9.274l-0.033.13H9.208v0.1H9.175v0.065H9.142v0.1H9.109l-0.033.13H9.042v0.1H9.009l-0.033.13H8.943v0.1H8.91V25.01H8.877v0.1H8.844l-0.033.13H8.778v0.1H8.744l-0.033.13H8.678v0.1H8.645v0.065H8.612v0.1H8.579v0.065H8.546l-0.033.13H8.48v0.1H8.447l-0.033.162H8.38v0.065H8.347v0.1H8.314v0.065H8.281l-0.033.13H8.215v0.1H8.182L8.149,26.8H8.116v0.065H8.082v0.1H8.049l-0.033.13H7.983v0.1H7.95l-0.033.13H7.884v0.1H7.851v0.065H7.818v0.1H7.784l-0.033.13H7.718v0.1H7.685v0.065H7.652v0.1H7.619v0.1H7.586v0.1H7.553v0.1H7.52v0.1H7.486v0.065H7.453v0.162H7.42v0.1H7.387v0.1H7.354v0.195H7.321a0.855,0.855,0,0,0,.033.552l0.033,0.162L7.453,29.72v0.065H7.486L7.52,29.851H7.586l0.066,0.1L7.784,29.98l0.033,0.065h0.1a5.452,5.452,0,0,0,2.185.325V30.5h0.033l-0.033.26V31.6H0.071V30.37l1.457-.065V30.273l0.43-.033V30.208H2.19V30.175H2.356V30.143H2.488V30.11H2.62V30.078h0.1V30.045H2.852V30.013H2.918V29.98h0.1V29.948H3.084V29.915l0.3-.1,0.033-.065H3.481l0.033-.065a0.667,0.667,0,0,1,.232-0.1V29.526H3.812A0.476,0.476,0,0,1,4.077,29.3c0.033-.125.1-0.1,0.133-0.227H4.276l0.033-.1H4.342l0.033-.1,0.066-.032,0.033-.13,0.1-.065,0.066-.2,0.066-.032,0.033-.13H4.772L4.838,28.1H4.871V28H4.9l0.033-.13H4.971l0.1-.292H5.1v-0.1H5.136V27.414H5.169L5.2,27.251H5.235v-0.1H5.269V27.089H5.3v-0.1H5.335V26.926H5.368v-0.1H5.4l0.033-.13H5.467V26.634H5.5v-0.1H5.533l0.033-.13H5.6v-0.1H5.633l0.033-.13H5.7v-0.1H5.732V26.017H5.765v-0.1H5.8l0.033-.13H5.865v-0.1H5.9l0.033-.13H5.964v-0.1H6l0.033-.13H6.063v-0.1H6.1l0.033-.13H6.162v-0.1H6.2l0.033-.13H6.262v-0.1H6.295l0.033-.13H6.361l0.033-.2H6.427V24.393H6.46l0.1-.325H6.593l0.033-.13H6.659v-0.1H6.692l0.033-.13H6.758v-0.1H6.791V23.548H6.824v-0.1H6.858V23.385H6.891l0.033-.13H6.957L6.99,23.06H7.023l0.033-.13H7.089v-0.1H7.122V22.768H7.156l0.033-.13H7.222l0.033-.195H7.288l0.033-.13H7.354v-0.1H7.387l0.033-.13H7.453v-0.1H7.486V21.923H7.52v-0.1c1.088-2.368,2.06-4.846,3.145-7.212v-0.1H10.7V14.451h0.033v-0.1h0.033l0.033-.13H10.83v-0.1h0.033L10.9,14h0.033V13.9h0.033L11,13.769h0.033v-0.1h0.033l0.033-.13h0.033v-0.1h0.033V13.379h0.033v-0.1h0.033l0.033-.13h0.033v-0.1h0.033V12.989H11.36v-0.1h0.033l0.033-.13h0.033V12.7h0.033V12.6h0.033l0.033-.13h0.033v-0.1h0.033l0.033-.13h0.033v-0.1h0.033l0.033-.13H11.79v-0.1h0.033l0.033-.13h0.033v-0.1h0.033l0.033-.13h0.033v-0.1h0.033l0.033-.13h0.033v-0.1h0.033l0.033-.13h0.033v-0.1H12.22V10.943h0.033v-0.1h0.033l0.033-.13h0.033v-0.1h0.033l0.033-.13h0.033v-0.1h0.033l0.033-.13h0.033v-0.1h0.033V10.1h0.033l0.033-.13h0.033V9.87h0.033l0.033-.13h0.033l0.033-.195h0.033l0.033-.13h0.033v-0.1h0.033l0.033-.13h0.033v-0.1h0.033l0.033-.13h0.033v-0.1h0.033l0.033-.13h0.033v-0.1h0.033l0.033-.13h0.033v-0.1h0.033V8.344h0.033v-0.1h0.033l0.033-.13h0.033v-0.1h0.033V7.954h0.033l0.033-.162h0.033l0.033-.13h0.033v-0.1H13.71l0.033-.13h0.033v-0.1h0.033V7.271h0.033l0.033-.162h0.033l0.033-.162h0.033l0.132-.357H14.074a0.794,0.794,0,0,0-.133-0.227V6.3l-0.066-.033-0.033-.13L13.776,6.1l-0.033-.13-0.066-.033-0.033-.13-0.066-.033V5.712l-0.066-.033-0.033-.13-0.066-.033V5.452L13.346,5.42l-0.033-.13H13.28l-0.033-.1L13.18,5.16l-0.033-.13H13.114l-0.033-.1L13.015,4.9V4.835l-0.1-.065V4.7l-0.1-.065V4.575L12.75,4.542V4.477l-0.066-.032V4.38H12.651a0.268,0.268,0,0,1-.066-0.13H12.518V4.185l-0.1-.065V4.055l-0.066-.032V3.99l-0.066-.032V3.893H12.253a0.252,0.252,0,0,1-.066-0.13H12.121V3.7l-0.1-.065-0.033-.1H11.922l-0.033-.1-0.166-.13V3.243l-0.165-.1-0.463-.487L10.9,2.5,10.83,2.4l-0.1-.033V2.3H10.665V2.268a0.7,0.7,0,0,1-.133-0.1H10.5V2.106l-0.1-.032V2.041c-0.085-.058-0.063.035-0.1-0.1A2.754,2.754,0,0,1,10,1.781V1.716a0.416,0.416,0,0,1-.2-0.1V1.586H9.738l-0.066-.1H9.605V1.456l-0.1-.033-0.066-.1L9.307,1.294,9.274,1.229H9.208L9.175,1.164H9.109L9.075,1.1,8.943,1.066,8.91,1H8.844L8.811,0.936H8.744V0.9H8.678V0.871A0.241,0.241,0,0,0,8.546.839V0.774A0.219,0.219,0,0,1,8.413.741V0.709H8.347V0.676H8.281L8.248,0.611h-0.1A1.166,1.166,0,0,1,7.917.449L8.579,0.481V0.514H8.91V0.546h0.3V0.579H9.373V0.611h0.3V0.644H9.936V0.676H10.1V0.709h0.232c0.22,0.065.515,0.1,0.728,0.162h0.165V0.9H11.36V0.936h0.132V0.969h0.165V1l0.3,0.033V1.066h0.1V1.1l0.364,0.065V1.2l0.4,0.065V1.294h0.066V1.326l0.232,0.033V1.391h0.1V1.423h0.1V1.456h0.1V1.489h0.1V1.521h0.1V1.554h0.1V1.586l0.2,0.033V1.651h0.066V1.683l0.2,0.033V1.748l0.166,0.033V1.813h0.066V1.846h0.1V1.878l0.132,0.032V1.943h0.1V1.976l0.132,0.032V2.041h0.1V2.073h0.066V2.106H15.1V2.138h0.066V2.171l0.2,0.065V2.268h0.1V2.3L15.6,2.333V2.366L15.729,2.4l0.033,0.065h0.066V2.5h0.066V2.528h0.1l0.033,0.065L16.16,2.626l0.033,0.065,0.2,0.065,0.033,0.065,0.2,0.065L16.656,2.95l0.132,0.033,0.066,0.1,0.132,0.032V3.145l0.1,0.032L17.12,3.243h0.066V3.275l0.1,0.032,0.033,0.065h0.066l0.066,0.1h0.066L17.55,3.535h0.066L17.649,3.6l0.1,0.032V3.665A0.272,0.272,0,0,0,17.881,3.73ZM46.052,6.394c0.313-.017.842,0,1.258,0a3.422,3.422,0,0,1,.53,0l-0.166.227-0.1.065-0.033.1-0.166.13V6.979l-0.2.162V7.206l-0.2.162V7.434l-0.2.162V7.661l-0.166.13V7.856l-0.232.195V8.116l-0.166.13V8.311l-0.2.162V8.538l-0.166.13V8.733l-0.232.195V8.993l-0.132.1V9.123H45.257l-0.033-.1h0.033l0.066-.292h0.033V8.6H45.39v-0.1h0.033v-0.1h0.033V8.279h0.033V8.214h0.033V8.083h0.033v-0.1h0.033V7.856h0.033v-0.1h0.033v-0.1h0.033l0.1-.422H45.82V7.109h0.033l0.066-.325h0.033v-0.1A1,1,0,0,0,46.052,6.394ZM61.213,9.188H60.65a2.357,2.357,0,0,1-.033-0.682H60.584V8.246a0.8,0.8,0,0,0-.3-0.52,2.261,2.261,0,0,0-1.192-.162H56.148a8.248,8.248,0,0,0-.033,1.3v12.02a1.132,1.132,0,0,0,.2.942v0.032l0.5,0.1a1.029,1.029,0,0,1,.43.033,1.238,1.238,0,0,1,.033.552H52.606V21.956a1.984,1.984,0,0,0,.761-0.1h0.1l0.033-.065h0.066V21.761l0.066-.033c0.049-.063-0.033-0.033.066-0.1l0.033-.195h0.033V7.6a4.778,4.778,0,0,0-1.159-.033H50.024V7.6h-0.2V7.629h-0.1V7.661l-0.133.032V7.726H49.528a2.246,2.246,0,0,0-.3,1.462H48.667a3.151,3.151,0,0,1-.033-0.877V6.427a4.941,4.941,0,0,1,1.192-.032H61.18a3.151,3.151,0,0,1,.033.877V9.188Zm0.894-2.794h6.919V6.427h0.43V6.459l0.463,0.033V6.524L70.25,6.557V6.589l0.232,0.032V6.654h0.1V6.687h0.1V6.719h0.132V6.752h0.066V6.784h0.1V6.817h0.066V6.849h0.1V6.881l0.132,0.033V6.946h0.1l0.033,0.065h0.1l0.033,0.065,0.2,0.065,0.033,0.065,0.132,0.033L71.939,7.3H72l0.066,0.1h0.066L72.17,7.466h0.066L72.27,7.531H72.3L72.336,7.6H72.4l0.1,0.13h0.066l0.3,0.325,0.3,0.26V8.376l0.132,0.1V8.538l0.066,0.032V8.636l0.066,0.032,0.033,0.1h0.033L73.527,8.9l0.066,0.032V8.993h0.033l0.033,0.13h0.033v0.1h0.033V9.286h0.033v0.1h0.033V9.448h0.033v0.13h0.033v0.1h0.033v0.13h0.033V9.968h0.033V10.13h0.033v0.422h0.033a0.7,0.7,0,0,1-.033.325V11.3H73.958v0.163H73.925v0.162H73.892v0.13H73.858v0.1H73.825l-0.066.292H73.726l-0.066.195H73.627V12.4H73.594l-0.066.195-0.066.033-0.033.13-0.066.033v0.065l-0.066.033-0.033.1-0.1.065v0.065l-0.2.162v0.065l-0.066.032-0.165.195H72.667l-0.2.228H72.4l-0.033.065H72.3l-0.066.1H72.17l-0.033.065-0.1.033v0.032l-0.132.032-0.033.065-0.2.065-0.033.065H71.574v0.032l-0.132.032v0.033h-0.1v0.032l-0.2.065v0.032H71.012l-0.033.065-0.232.032v0.033H70.681v0.032H70.548v0.033H70.482v0.032l-0.463.1a0.212,0.212,0,0,0,.033.13h0.033v0.065h0.033v0.065l0.066,0.033,0.033,0.13,0.066,0.033v0.065l0.066,0.033,0.033,0.13h0.033l0.033,0.1,0.066,0.033,0.033,0.13,0.066,0.033v0.065l0.066,0.033,0.033,0.13,0.066,0.033v0.065l0.066,0.033,0.033,0.13h0.033l0.033,0.1,0.066,0.033,0.033,0.13,0.066,0.033,0.033,0.13h0.033l0.033,0.1,0.066,0.033,0.033,0.13,0.066,0.033v0.065l0.066,0.033,0.033,0.13,0.066,0.032v0.065l0.066,0.033,0.033,0.13h0.033l0.033,0.1,0.066,0.033v0.065h0.033V17.8l0.066,0.032,0.033,0.13h0.033l0.033,0.1,0.066,0.032v0.065h0.033V18.22l0.066,0.033v0.065L72.2,18.35l0.033,0.13H72.27l0.033,0.1,0.066,0.032L72.4,18.74l0.066,0.033v0.065l0.066,0.032L72.567,19H72.6l0.033,0.1L72.7,19.129v0.065h0.033v0.065L72.8,19.292l0.033,0.13h0.033l0.033,0.1,0.066,0.032v0.065H73v0.065l0.066,0.033v0.065l0.066,0.032,0.033,0.13,0.066,0.032v0.065L73.3,20.072l0.033,0.13L73.4,20.234V20.3l0.066,0.032,0.033,0.13h0.033l0.033,0.1,0.066,0.032,0.033,0.13,0.066,0.032,0.033,0.13,0.066,0.032v0.065l0.1,0.065v0.065l0.066,0.033v0.065l0.1,0.065v0.065l0.132,0.1V21.5l0.132,0.1,0.1,0.13a1.773,1.773,0,0,0,1.026.227v0.585H70.813V21.956a1.69,1.69,0,0,0,.43-0.065l0.066-.1h0.033V21.728h0.033V21.534H71.343l-0.033-.227H71.276V21.241l-0.066-.033V21.144l-0.066-.033V21.046l-0.066-.032-0.033-.13-0.066-.033-0.033-.1H70.912l-0.066-.195-0.066-.033V20.462l-0.066-.033-0.033-.13-0.066-.033V20.2l-0.066-.033-0.033-.13-0.066-.033V19.942l-0.066-.033-0.033-.13H70.316l-0.033-.1-0.066-.032V19.584H70.184V19.519l-0.066-.033-0.033-.13-0.066-.033-0.033-.13H69.952l-0.033-.1-0.066-.033-0.033-.13L69.754,18.9V18.837L69.687,18.8l-0.033-.13H69.621l-0.033-.1-0.066-.033-0.033-.13-0.066-.032-0.033-.13-0.066-.033-0.033-.13-0.066-.032V17.992l-0.066-.033-0.033-.1H69.092l-0.033-.13H69.025l-0.033-.1L68.926,17.6l-0.033-.13-0.066-.033-0.033-.13-0.066-.032V17.213H68.694V17.148l-0.066-.033V17.05l-0.066-.033-0.033-.13H68.5l-0.033-.1L68.4,16.758l-0.033-.13L68.3,16.6V16.531L68.231,16.5l-0.033-.13H68.165l-0.033-.1-0.066-.032-0.033-.13-0.066-.033-0.033-.13-0.066-.033V15.848H67.834V15.783H67.8l-0.033-.1L67.7,15.653l-0.033-.13L67.6,15.491V15.426l-0.066-.033-0.033-.13-0.066-.033V15.166H67.4l-0.033-.1a7.933,7.933,0,0,0-1.225-.032h-0.53v0.032h-0.6V15.1H64.854v0.032H64.689v0.033h-0.1V15.2l-0.165.032-0.033.065H64.325l-0.066.1H64.225v0.065l-0.066.032v0.065H64.126l-0.033.13H64.06v0.13H64.027v0.1H63.994v0.2H63.961V16.3H63.928a1.132,1.132,0,0,1-.033.357,1.206,1.206,0,0,1-.53.032,3.16,3.16,0,0,1-.033-0.877V7.4H63.3l-0.033-.162-0.1-.065V7.141L62.8,7.011a3.218,3.218,0,0,1-.7-0.065,1.049,1.049,0,0,1-.033-0.487C62.111,6.422,62.087,6.459,62.107,6.394ZM81.141,6.979a1.067,1.067,0,0,0-1.059.325,1.52,1.52,0,0,0-.1.812V20.949a1.015,1.015,0,0,0,.2.877v0.032l0.5,0.1a1.03,1.03,0,0,1,.43.033,1.238,1.238,0,0,1,.033.552H76.474V21.988h0.033V21.956l0.629-.032a2.158,2.158,0,0,1,.265-0.1l0.1-.13h0.033l0.033-.13H77.6a3.26,3.26,0,0,0,.033-0.975V7.986a0.9,0.9,0,0,0-.265-0.877,1.851,1.851,0,0,0-.894-0.13V6.427A6.758,6.758,0,0,1,77.9,6.394h3.211A1.994,1.994,0,0,1,81.141,6.979Zm8.375-.585a7.758,7.758,0,0,1,4.337,1.072l0.2,0.065L94.085,7.6h0.066V7.629h0.066V7.661l0.1,0.032,0.033,0.065h0.066l0.033,0.065h0.066l0.066,0.1h0.066L94.68,7.986h0.066l0.066,0.1h0.066l0.1,0.13h0.066l0.133,0.162h0.066l0.165,0.195,0.53,0.487V9.123L96.1,9.253V9.318l0.132,0.1V9.481l0.1,0.065,0.033,0.1,0.066,0.032V9.74L96.5,9.773V9.838L96.6,9.9l0.033,0.13L96.7,10.065V10.13l0.066,0.033v0.065l0.066,0.032L96.9,10.455l0.066,0.033v0.065H97v0.065h0.033v0.065h0.033v0.065L97.13,10.78l0.1,0.293L97.3,11.1v0.1h0.033l0.033,0.13h0.033v0.1h0.033v0.065h0.033l0.033,0.162h0.033v0.13H97.56v0.065h0.033l0.033,0.227H97.66v0.1h0.033L97.726,12.4h0.033v0.162a7.6,7.6,0,0,1-.066,4.028v0.13H97.66v0.13H97.627v0.1H97.593v0.1H97.56v0.1H97.527v0.1H97.494V17.31H97.461v0.1H97.428v0.065H97.395v0.1H97.362v0.065H97.329L97.3,17.8H97.262l-0.066.2H97.163v0.065H97.13v0.065H97.1v0.065H97.064v0.065H97.031v0.065H97v0.065l-0.066.032-0.033.13-0.066.033-0.066.195H96.733l-0.033.1-0.066.033v0.065L96.567,19v0.065H96.534l-0.033.1-0.066.033v0.065l-0.066.032-0.033.1-0.1.065v0.065l-0.132.1v0.065l-0.2.163v0.065l-0.43.39-0.2.227H95.21l-0.166.2H94.978l-0.1.13H94.813l-0.066.1H94.68l-0.066.1H94.548l-0.033.065H94.449l-0.033.065H94.349l-0.033.065H94.25l-0.033.065-0.132.032-0.033.065-0.1.032v0.032L93.82,21.5l-0.033.065h-0.1l-0.033.065-0.132.033V21.7l-0.2.065v0.032h-0.1l-0.033.065h-0.1v0.032l-0.132.033v0.032h-0.1v0.033H92.793v0.033h-0.1v0.032H92.628v0.033H92.5v0.032H92.429v0.032l-0.331.065v0.033H91.966v0.032h-0.1v0.032H91.7v0.033H91.6v0.032l-0.364.032v0.033h-0.2v0.032l-0.5.033v0.032h-0.43a4.542,4.542,0,0,1-1.092-.065H88.689V22.443h-0.2V22.411H88.325V22.378H88.159V22.346l-0.3-.033V22.281l-0.232-.032V22.216h-0.1V22.183h-0.1V22.151H87.3V22.118H87.232V22.086H87.1V22.053l-0.165-.032V21.988L86.8,21.956V21.923H86.7V21.891H86.636V21.858h-0.1L86.5,21.793H86.4V21.761H86.338V21.728H86.272V21.7H86.206V21.664H86.14V21.631l-0.2-.065L85.908,21.5l-0.132-.033L85.742,21.4l-0.132-.033V21.339l-0.1-.032-0.033-.065H85.411V21.209l-0.1-.032-0.033-.065H85.213l-0.066-.1H85.08l-0.066-.1H84.948l-0.066-.1H84.816l-0.066-.1H84.716l-0.033-.065H84.617l-0.2-.228H84.352l-0.265-.292-0.165-.13V19.942l-0.232-.2V19.682l-0.166-.13V19.487l-0.066-.032V19.422l-0.066-.032V19.324l-0.1-.065V19.194l-0.066-.033V19.1l-0.1-.065V18.967l-0.066-.032-0.033-.1H82.995V18.772l-0.066-.033L82.9,18.61l-0.066-.032-0.066-.2L82.7,18.35l-0.066-.195H82.6V18.09H82.565L82.5,17.9H82.465V17.8H82.432l-0.033-.13H82.366v-0.1H82.333V17.505H82.3v-0.1H82.267V17.343H82.234L82.2,17.148H82.167V17.083H82.134v-0.13H82.1V16.888H82.068V16.725H82.035V16.66H82l-0.033-.292H81.936v-0.13H81.9l-0.033-.325H81.836L81.8,15.458H81.77V15.036H81.737V14.711A3.588,3.588,0,0,1,81.77,13.9V13.477H81.8V13.314h0.033v-0.26h0.033V12.892H81.9V12.729h0.033V12.6h0.033v-0.13H82V12.307h0.033V12.242h0.033V12.08H82.1V12.015h0.033v-0.13h0.033V11.82H82.2l0.033-.195h0.033l0.033-.162h0.033V11.4h0.033V11.3H82.4l0.033-.13h0.033v-0.1H82.5l0.066-.2H82.6V10.813h0.033l0.066-.195,0.066-.032,0.066-.195,0.066-.033,0.033-.13h0.033l0.033-.1,0.066-.032,0.033-.13,0.066-.033V9.87l0.066-.032,0.033-.1,0.1-.065V9.61l0.066-.032V9.513l0.132-.1V9.351l0.132-.1V9.188l0.265-.227V8.9l0.132-.1,0.265-.292h0.066l0.2-.227h0.066l0.132-.162h0.066l0.033-.065h0.033l0.033-.065h0.066l0.033-.065h0.066l0.066-.1h0.066l0.033-.065h0.066l0.033-.065,0.1-.032V7.629L85.643,7.6l0.033-.065,0.1-.032V7.466h0.066V7.434h0.066V7.4h0.066V7.369H86.04L86.074,7.3h0.1l0.033-.065,0.132-.033V7.174l0.2-.065V7.076h0.1V7.044H86.7V7.011h0.1V6.979l0.132-.033V6.914l0.3-.065V6.817H87.3V6.784h0.132V6.752H87.5V6.719l0.265-.032V6.654h0.1V6.622h0.166V6.589h0.132V6.557l0.331-.033V6.492h0.265V6.459h0.3s0-.027.066-0.032A0.925,0.925,0,0,0,89.516,6.394Zm-46.808.065c0.091,0.024.074,0.009,0.1,0.1h0.033v0.1h0.033l0.033,0.13H42.94v0.1h0.033l0.033,0.162h0.033V7.109h0.033l0.033,0.13h0.033v0.1h0.033L43.2,7.5h0.033l0.033,0.13H43.3v0.1h0.033L43.37,7.889H43.4l0.033,0.13H43.47v0.1H43.5V8.181h0.033v0.1h0.033L43.6,8.408h0.033V8.473h0.033v0.1H43.7L43.735,8.7h0.033V8.8H43.8V8.863h0.033v0.1h0.033L43.9,9.091h0.033l0.033,0.162H44v0.1h0.033V9.416h0.033L44.1,9.546h0.033v0.1h0.033V9.708H44.2v0.1h0.033l0.033,0.13H44.3l0.1,0.325H44.43v0.065h0.033v0.1H44.5v0.065h0.033v0.1L44.6,10.618v0.1h0.033V10.78h0.033v0.1h0.033l0.033,0.13h0.033v0.1h0.033V11.17h0.033v0.1H44.86l0.033,0.13h0.033v0.1h0.033V11.56h0.033v0.1h0.033l0.033,0.13h0.033v0.065h0.033v0.1h0.033l0.033,0.13h0.033v0.1h0.033v0.065H45.29v0.1h0.033l0.033,0.13H45.39v0.1h0.033v0.065h0.033v0.1h0.033l0.033,0.13h0.033v0.1h0.033v0.065h0.033v0.1l0.066,0.033v0.1h0.033v0.065h0.033v0.1h0.033l0.033,0.13h0.033v0.1h0.033V13.7h0.033v0.1h0.033l0.033,0.13h0.033v0.1h0.033v0.065h0.033v0.1h0.033v0.065h0.033l0.033,0.13h0.033v0.1H46.25v0.065h0.033v0.1h0.033l0.033,0.13h0.033v0.1h0.033v0.065h0.033v0.1h0.033l0.033,0.13h0.033v0.1h0.033v0.065h0.033v0.1l0.066,0.032v0.1h0.033v0.065h0.033v0.1H46.78l0.033,0.13h0.033v0.1h0.033v0.065h0.033v0.1h0.033v0.065h0.033v0.1h0.033l0.033,0.13h0.033l0.1,0.325H47.21V16.79h0.033v0.1h0.033v0.065H47.31v0.1h0.033v0.065h0.033l0.033,0.13h0.033v0.1h0.033v0.065h0.033v0.1h0.033l0.033,0.13h0.033v0.1h0.033V17.8h0.033v0.1h0.033l0.033,0.13h0.033l0.033,0.163h0.033v0.1h0.033l0.033,0.13h0.033v0.1h0.033L48,18.675h0.033V18.74h0.033v0.1l0.066,0.032v0.1H48.17v0.065H48.2v0.1h0.033l0.033,0.13H48.3v0.1h0.033v0.065h0.033v0.1H48.4l0.033,0.162h0.033l0.033,0.13h0.033v0.1h0.033v0.065H48.6v0.1h0.033l0.033,0.13H48.7v0.1h0.033v0.065h0.033v0.1H48.8l0.033,0.13h0.033v0.065H48.9v0.1h0.033L49,20.949h0.033v0.065h0.033v0.065H49.1l0.066,0.195,0.066,0.033L49.3,21.5l0.066,0.032,0.1,0.13h0.066l0.033,0.065,0.132,0.033v0.032h0.1v0.033h0.066v0.032l0.232,0.032v0.033a1.31,1.31,0,0,1,.4.065,1.24,1.24,0,0,1,.033.552h-4.7V21.988a0.057,0.057,0,0,0,.033-0.033,0.743,0.743,0,0,0,.7-0.292,0.665,0.665,0,0,0-.033-0.552v-0.1H46.482V20.949H46.449v-0.1H46.416V20.786H46.383v-0.1l-0.066-.032v-0.1H46.284l-0.033-.13H46.217v-0.1H46.184V20.266H46.151v-0.1H46.118l-0.033-.13H46.052v-0.1H46.019V19.877H45.986l-0.033-.13H45.919v-0.1H45.886V19.584H45.853v-0.1H45.82l-0.033-.13H45.754v-0.1H45.721V19.194H45.688l-0.033-.13H45.621v-0.1H45.588l-0.033-.13H45.522v-0.1H45.489V18.675H45.456v-0.1H45.423V18.512H45.39l-0.033-.163H45.323l-0.033-.162H45.257V18.122H45.224v-0.1l-0.066-.032V17.9H45.125V17.83H45.092v-0.1H45.059l-0.033-.13H44.993v-0.1H44.959V17.44H44.926v-0.1H44.893l-0.033-.13H44.827l-0.033-.162H44.761v-0.1H44.728V16.888H44.695v-0.1H44.661l-0.033-.13H44.6l-0.1-.325H44.463l-0.033-.13H44.4l-0.033-.2L44.3,15.978v-0.1H44.264V15.816H44.231v-0.1H44.2l-0.033-.162H44.132l-0.033-.13H44.066v-0.1H44.032V15.263H44v-0.1H43.966l-0.033-.13H43.9v-0.1H43.867V14.874H43.834v-0.1H43.8V14.711H43.768l-0.033-.13H43.7v-0.1H43.668l-0.033-.13H43.6v-0.1H43.569V14.191H43.536v-0.1H43.5l-0.033-.162H43.437L43.4,13.8H43.37V13.7H43.337V13.639H43.3v-0.1H43.271l-0.033-.13H43.2v-0.1H43.172V13.249H43.139l-0.033-.13H43.072v-0.1H43.039V12.957H43.006v-0.1H42.973l-0.033-.13H42.907v-0.1H42.874V12.567H42.841v-0.1H42.808l-0.033-.13H42.741l-0.033-.162H42.675v-0.1H42.642V12.015H42.609l-0.033-.13H42.543v-0.1H42.51V11.722H42.477v-0.1H42.444l-0.033-.13H42.377V11.4H42.344V11.332H42.311v-0.1H42.278l-0.1-.292-0.1-.033a0.487,0.487,0,0,1-.1.227v0.1H41.947V11.3H41.914v0.1H41.881l-0.033.13H41.815l-0.033.162H41.748v0.1H41.715v0.065H41.682l-0.033.13H41.616v0.1H41.583v0.065H41.55v0.1H41.517l-0.033.13H41.45l-0.1.325H41.318v0.065H41.285v0.1H41.252v0.065H41.219v0.1l-0.066.033v0.1H41.119v0.065H41.086v0.1H41.053l-0.033.13H40.987v0.1H40.954v0.065H40.921v0.1H40.888l-0.033.13H40.821L40.788,14H40.755v0.1H40.722l-0.033.13H40.656v0.1H40.623v0.065H40.59v0.1H40.557v0.065H40.524l-0.033.13H40.457v0.1H40.424v0.065H40.391v0.1H40.358l-0.033.13H40.292v0.1H40.259v0.065H40.226v0.1H40.193v0.065H40.159l-0.066.195H40.06v0.1H40.027v0.065H39.994v0.1H39.961l-0.066.195H39.861v0.065H39.828v0.1H39.8V16.27H39.762v0.1L39.7,16.4v0.1H39.663v0.065H39.63v0.1H39.6l-0.033.13H39.53l-0.1.325H39.4V17.18H39.365v0.1H39.332v0.065H39.3l-0.033.162H39.233v0.1H39.2l-0.033.13H39.133v0.1H39.1V17.9H39.067v0.1L39,18.025v0.1H38.968v0.065H38.935v0.1H38.9l-0.033.13H38.835v0.1H38.8v0.065H38.769v0.1H38.736V18.74H38.7v0.1H38.67l-0.033.13H38.6l-0.1.325H38.471v0.065H38.438v0.1H38.4v0.065H38.372v0.1H38.339v0.065H38.306l-0.033.13H38.239l-0.033.195H38.173l-0.033.13H38.107V20.2H38.074v0.1H38.041v0.065H38.008v0.1H37.975l-0.033.13H37.908l-0.033.162H37.842v0.1H37.809v0.1H37.776v0.1H37.743v0.1a0.654,0.654,0,0,0-.066.422H37.71l0.033,0.13,0.1,0.032,0.033,0.065,0.132,0.033v0.032H38.14v0.032h0.1v0.033h0.232v0.032a1.7,1.7,0,0,1,.5.033,1.24,1.24,0,0,1,.033.552H34.3V21.956a3.168,3.168,0,0,0,1.688-.325l0.066-.1,0.232-.195V21.274l0.066-.032V21.176l0.066-.033,0.033-.13,0.066-.032v-0.1h0.033l0.033-.13h0.033v-0.1h0.033V20.591h0.033v-0.1h0.033l0.033-.13h0.033v-0.1h0.033V20.2h0.033V20.1h0.033V20.039h0.033l0.033-.13h0.033v-0.1h0.033V19.747h0.033v-0.1h0.033l0.033-.13h0.033v-0.1H37.18V19.357h0.033v-0.1h0.033l0.033-.13h0.033v-0.1h0.033V18.967h0.033v-0.1h0.033l0.033-.13h0.033l0.033-.162h0.033v-0.1h0.033V18.415H37.61v-0.1l0.066-.032v-0.1H37.71V18.122h0.033v-0.1h0.033l0.033-.13h0.033V17.8h0.033V17.733h0.033v-0.1h0.033l0.033-.13h0.033v-0.1h0.033V17.343h0.033v-0.1h0.033V17.18H38.14v-0.1h0.033l0.033-.13h0.033v-0.1h0.033V16.79h0.033v-0.1l0.066-.032v-0.1H38.4V16.5h0.033l0.033-.163H38.5v-0.1h0.033l0.033-.13H38.6v-0.1h0.033V15.946H38.67v-0.1H38.7l0.033-.13h0.033v-0.1H38.8V15.556h0.033v-0.1h0.033l0.033-.13h0.033l0.033-.162H39v-0.1h0.033V15h0.033l0.033-.13h0.033v-0.1h0.033l0.033-.13h0.033v-0.1h0.033V14.484H39.3v-0.1h0.033l0.033-.13H39.4v-0.1h0.033V14.094h0.033V14H39.5V13.931H39.53l0.033-.13H39.6V13.7H39.63V13.639h0.033v-0.1H39.7l0.033-.13h0.033v-0.1H39.8V13.249h0.033v-0.1h0.033l0.033-.13h0.033v-0.1h0.033V12.859h0.033v-0.1l0.066-.032v-0.1h0.033V12.567h0.033v-0.1h0.033l0.033-.13h0.033v-0.1h0.033V12.177h0.033v-0.1h0.033l0.033-.13h0.033v-0.1h0.033V11.787h0.033v-0.1l0.066-.033v-0.1h0.033V11.495H40.59V11.4h0.033l0.033-.13h0.033v-0.1h0.033V11.1h0.033v-0.1h0.033l0.033-.13h0.033v-0.1h0.033V10.715h0.033v-0.1l0.066-.032v-0.1H41.02V10.423h0.033v-0.1h0.033l0.033-.13h0.033V10.1h0.033V10.033h0.033v-0.1h0.033l0.033-.13h0.033v-0.1h0.033V9.643h0.033v-0.1h0.033V9.481H41.45l0.033-.13h0.033v-0.1H41.55V9.188h0.033v-0.1h0.033l0.033-.13h0.033v-0.1h0.033V8.8h0.033V8.7h0.033l0.033-.13h0.033v-0.1h0.033V8.408h0.033v-0.1h0.033l0.033-.13h0.033v-0.1h0.033V8.019h0.033v-0.1l0.066-.033v-0.1h0.033V7.726h0.033v-0.1h0.033l0.033-.13h0.033l0.1-.325h0.033V7.109h0.033v-0.1H42.51V6.946h0.033v-0.1h0.033l0.033-.162,0.066-.032Zm22.974,1.1V13.9H68.1a4.418,4.418,0,0,0,1.258-.1h0.166V13.769l0.2-.032V13.7l0.132-.032V13.639h0.1l0.033-.065,0.2-.065,0.033-.065h0.066l0.033-.065,0.1-.032,0.066-.1h0.066l0.2-.228,0.166-.13V12.827l0.1-.065V12.7l0.1-.065V12.567l0.066-.033V12.469l0.066-.032,0.033-.13h0.033V12.242h0.033l0.066-.195h0.033v-0.1h0.033V11.885h0.033v-0.1h0.033v-0.13a2.858,2.858,0,0,0,.066-1.494V9.968H71.574V9.838H71.541V9.708H71.508V9.61a3.335,3.335,0,0,0-2.052-1.982H69.29a4.592,4.592,0,0,0-1.126-.065H65.682Zm27.707,12.41V19.909h0.066a1.784,1.784,0,0,1,.3-0.357l0.1-.065V19.422l0.165-.13V19.227l0.1-.065,0.033-.1,0.066-.032V18.967l0.066-.032V18.87l0.066-.032V18.772l0.066-.033,0.033-.1h0.033l0.033-.13,0.066-.033,0.033-.13,0.066-.032V18.252h0.033V18.187h0.033V18.122H94.78V18.057h0.033V17.992h0.033V17.927h0.033l0.066-.195h0.033v-0.1h0.033V17.57h0.033l0.033-.162h0.033l0.033-.195h0.033V17.148H95.21v-0.13h0.033v-0.1h0.033v-0.1h0.033l0.033-.227h0.033V16.433h0.033v-0.1h0.033V16.173h0.033V15.978h0.033V15.816h0.033V15.523h0.033v-0.26h0.033v-1.04a6.551,6.551,0,0,0-.463-2.5v-0.13H95.111V11.527H95.078v-0.1H95.044V11.365H95.011L94.978,11.2H94.945l-0.066-.195H94.846V10.943H94.813V10.878H94.78V10.813H94.747V10.748H94.713V10.683H94.68V10.618l-0.066-.032-0.066-.195-0.066-.033V10.293l-0.066-.033V10.2l-0.066-.032V10.1l-0.066-.032V10l-0.066-.032V9.9l-0.132-.1V9.74l-0.066-.032-0.033-.1-0.166-.13V9.416l-0.066-.032V9.351a0.841,0.841,0,0,1-.3-0.325,0.861,0.861,0,0,1-.3-0.227l-0.033-.065H93.058l-0.033-.065H92.992l-0.066-.1H92.86l-0.066-.1H92.727l-0.033-.065-0.1-.032V8.344H92.529L92.5,8.279l-0.1-.033V8.214H92.33V8.181H92.264V8.148H92.2V8.116H92.131L92.1,8.051H92l-0.033-.065h-0.1V7.954H91.8V7.921H91.7V7.889l-0.132-.032V7.824H91.436V7.791H91.37V7.759H91.238V7.726h-0.1V7.694H90.973V7.661H90.84V7.629h-0.2V7.6H90.311a3.713,3.713,0,0,0-.927-0.033V7.6h-0.3V7.629h-0.2V7.661H88.755V7.694H88.589V7.726h-0.1V7.759H88.358V7.791H88.291V7.824H88.159V7.856H88.093V7.889l-0.2.033-0.033.065h-0.1V8.019l-0.2.065V8.116l-0.132.032L87.4,8.214l-0.132.032V8.279l-0.1.032-0.033.065H87.067l-0.033.065H86.967l-0.066.1H86.835l-0.066.1H86.7l-0.165.195H86.471l-0.165.2-0.364.325V9.416l-0.2.162V9.643l-0.132.1V9.805l-0.1.065V9.935l-0.066.033v0.065l-0.1.065v0.065l-0.066.032-0.033.1H85.213l-0.033.13-0.066.032-0.033.13-0.066.032v0.065H84.981v0.065H84.948v0.065H84.915v0.065H84.882v0.065H84.849l-0.066.195H84.749v0.1H84.716V11.3H84.683v0.065H84.65V11.43H84.617v0.1H84.584v0.1H84.551v0.1H84.518v0.1H84.485v0.065H84.451v0.13H84.418v0.1H84.385l-0.033.227H84.319v0.13H84.286v0.162H84.253v0.13H84.22l-0.033.39H84.154v0.26H84.12v0.325a5.115,5.115,0,0,0,0,1.462q0.017,0.292.033,0.585h0.033v0.13H84.22v0.227h0.033l0.033,0.292h0.033v0.13l0.3,0.877H84.65v0.065h0.033v0.1h0.033v0.065h0.033v0.1L84.816,17.8v0.1h0.033l0.033,0.13h0.033V18.09l0.066,0.032v0.1l0.066,0.033,0.033,0.13,0.066,0.032,0.066,0.195,0.066,0.032v0.065h0.033l0.033,0.1,0.066,0.033V18.9l0.1,0.065v0.065l0.066,0.032v0.065l0.066,0.032,0.033,0.1,0.166,0.13v0.065l0.364,0.325L86.6,20.2h0.066l0.1,0.13h0.066l0.066,0.1L87,20.462l0.033,0.065H87.1l0.033,0.065,0.1,0.032v0.033H87.3l0.033,0.065H87.4v0.032h0.066v0.032H87.53v0.033H87.6l0.033,0.065h0.1l0.033,0.065h0.1v0.033l0.132,0.032v0.032h0.1v0.033h0.066v0.032h0.1v0.033h0.1v0.033h0.1v0.032h0.132v0.033h0.132v0.032l0.3,0.033v0.032h0.3v0.032l0.7,0.033V21.371l0.7-.032V21.306l0.3-.033V21.241h0.132V21.209h0.1V21.176l0.331-.065V21.079l0.165-.033V21.014l0.132-.032V20.949h0.1L92,20.884h0.1l0.033-.065H92.2V20.786h0.066V20.754H92.33V20.721H92.4V20.689l0.1-.032,0.033-.065h0.066l0.033-.065h0.066l0.066-.1h0.066l0.033-.065h0.066l0.066-.1h0.033l0.033-.065h0.066V20.169A0.723,0.723,0,0,1,93.389,19.974Zm-37.208,5.3v1.364H55.916L55.685,25.4l-0.6-.2H54.824a1.57,1.57,0,0,0-.861.065h-0.1V25.3l-0.2.065V25.4l-0.132.032-0.066.1H53.4l-0.165.195-0.132.1a3.536,3.536,0,0,0-.5,1.137v0.227H52.573a3.708,3.708,0,0,0,.033.942v0.227h0.033v0.163h0.033v0.13h0.033v0.1h0.033v0.1h0.033L52.8,29.038h0.033l0.033,0.13H52.9v0.065l0.066,0.033L53,29.4l0.1,0.065v0.065l0.2,0.162,0.133,0.163H53.5l0.033,0.065,0.1,0.033V29.98l0.563,0.2H54.46a0.649,0.649,0,0,0,.3.032l0.629-.1V28.356a3.438,3.438,0,0,1-.7-0.1H54.659V28.1h2.019v0.195l-0.5.065v1.787a5.263,5.263,0,0,0-.53.162H55.486v0.033H55.321V30.37h-0.2V30.4h-0.3v0.033A2.536,2.536,0,0,1,54.03,30.4H53.8V30.37H53.6V30.338H53.467V30.305h-0.1V30.273h-0.1V30.24h-0.1V30.208l-0.2-.065V30.11H52.9V30.078l-0.132-.032-0.033-.065H52.672l-0.033-.065H52.573l-0.265-.292-0.132-.1V29.461l-0.1-.065V29.331L52.01,29.3l-0.033-.13H51.944V29.1H51.911l-0.066-.195H51.812v-0.1H51.779V28.746H51.746v-0.13a2.827,2.827,0,0,1-.1-1.559V26.894a2.44,2.44,0,0,1,.927-1.364l0.066-.1h0.066l0.033-.065H52.8l0.033-.065,0.132-.032V25.237L53.1,25.2V25.172h0.1V25.14h0.066V25.107h0.1V25.075h0.1V25.042H53.6V25.01h0.132V24.977H53.9a2.207,2.207,0,0,1,.96-0.033h0.265v0.033h0.166V25.01H55.42v0.033h0.132v0.032h0.1v0.032h0.1V25.14h0.1A2.189,2.189,0,0,0,56.181,25.27Zm24.43,0v1.364h-0.3L80.082,25.4l-0.6-.2H79.221a1.942,1.942,0,0,0-1.423.325l-0.166.195-0.1.065v0.065l-0.1.065v0.065l-0.066.033-0.033.13H77.3v0.065H77.268l-0.066.195H77.169L77.1,26.7H77.069v0.162H77.036v0.162H77v0.227H76.97a2.987,2.987,0,0,0,.033.812v0.26h0.033v0.163h0.033v0.13H77.1v0.13l0.331,0.682,0.1,0.065v0.065l0.165,0.13,0.1,0.13h0.066l0.066,0.1,0.132,0.033V29.98l0.2,0.065v0.032l0.2,0.032v0.033h0.132v0.033h0.3v0.032h0.265V30.175h0.331l0.6-.163,0.364-1.04h0.2q-0.017.569-.033,1.137l-0.1.033v0.033l-0.331.065v0.033H80.049a3.661,3.661,0,0,1-1.589.13H78.195V30.37H78.029V30.338H77.864V30.305h-0.1V30.273h-0.1V30.24h-0.1V30.208H77.5V30.175H77.434V30.143H77.367V30.11H77.3V30.078H77.235L77.2,30.013l-0.132-.033L77,29.883H76.937l-0.1-.13-0.232-.2V29.493l-0.1-.065V29.363l-0.066-.032V29.266l-0.066-.033-0.066-.195H76.275V28.973H76.242v-0.1H76.209V28.811H76.176l-0.033-.2H76.109v-0.13H76.076V28.324H76.043V28.129H76.01V27.771a0.7,0.7,0,0,1-.033-0.325H76.01V27.122h0.033V26.959h0.033v-0.13h0.033V26.7h0.033V26.6h0.033V26.537h0.033v-0.1h0.033V26.374h0.033l0.066-.195,0.066-.033V26.082l0.066-.033V25.984l0.1-.065V25.854l0.2-.162,0.1-.13h0.066l0.066-.1h0.066l0.066-.1,0.2-.065,0.033-.065h0.066V25.2h0.1V25.172H77.6V25.14h0.1V25.107h0.066V25.075L78,25.042V25.01h0.132V24.977h0.2a2.773,2.773,0,0,1,.927-0.065v0.032h0.265v0.033h0.166V25.01h0.132v0.033h0.132v0.032h0.132A3.766,3.766,0,0,0,80.611,25.27Zm-34.725-.26h0.4l0.132,0.39h0.033v0.1h0.033v0.065h0.033v0.1h0.033l0.033,0.13h0.033v0.1h0.033v0.065h0.033l0.033,0.162h0.033v0.1H46.78v0.065h0.033v0.1h0.033v0.065h0.033v0.1h0.033l0.033,0.13h0.033l0.2,0.585H47.21l0.033,0.162h0.033l0.033,0.13h0.033v0.1h0.033v0.065h0.033v0.1h0.033v0.065h0.033v0.1h0.033v0.065h0.033v0.1h0.033l0.033,0.162h0.033v0.065h0.033v0.1h0.033l0.033,0.13h0.033v0.1h0.033v0.065h0.033v0.1h0.033v0.065h0.033v0.1h0.033v0.065h0.033v0.1H48l0.033,0.163h0.033l0.033,0.13h0.033v0.1H48.17v0.065H48.2v0.1h0.033v0.065H48.27v0.1H48.3v0.065h0.033c0.054,0.109-.05.086,0.1,0.13a1.919,1.919,0,0,0,.563.1V30.37H46.846V30.175l0.629-.065-0.7-1.852H44.926l-0.133.39H44.761v0.065H44.728v0.1H44.695v0.065H44.661l-0.2.585a1.43,1.43,0,0,0-.2.52l0.7,0.2V30.37H43.271V30.175a1.533,1.533,0,0,0,.629-0.26h0.033l0.033-.195H44V29.655h0.033v-0.1h0.033V29.493H44.1V29.4h0.033l0.033-.162H44.2V29.168h0.033v-0.1h0.033V29.006H44.3v-0.1H44.33V28.843h0.033v-0.1H44.4V28.681H44.43v-0.1h0.033V28.518H44.5v-0.1h0.033l0.033-.162H44.6V28.194h0.033V28.1h0.033V28.031h0.033v-0.1h0.033V27.869h0.033v-0.1h0.033V27.706h0.033v-0.1H44.86V27.544h0.033v-0.1h0.033V27.381h0.033v-0.1h0.033V27.219h0.033v-0.1h0.033V27.057h0.033l0.033-.195h0.033V26.8h0.033V26.7h0.033l0.033-.162H45.29V26.472h0.033v-0.1h0.033V26.309H45.39v-0.1h0.033V26.147h0.033l0.033-.162h0.033v-0.1h0.033V25.822h0.033v-0.1h0.033V25.66h0.033v-0.1h0.033V25.5h0.033V25.4h0.033V25.335h0.033Zm13.837,0H63.63v1.137H63.4L63.133,25.3l-1.854-.032a2.551,2.551,0,0,0-.033.715v1.429a2.05,2.05,0,0,0,.563.033H62.9l0.265-.617H63.3a1.815,1.815,0,0,1,.033.52v0.975h-0.2L62.9,27.706H61.279a2.791,2.791,0,0,0-.033.78V30.11l2.152-.032,0.132-.39h0.033v-0.1H63.6V29.526H63.63v-0.1h0.033V29.363H63.7a0.265,0.265,0,0,1,.066-0.162V29.168h0.2q-0.016.357-.033,0.715H63.894v0.422H63.861V30.37H59.723V30.175l0.7-.065V25.27l-0.7-.065V25.01Zm7.283,0H68.3a1.329,1.329,0,0,0,.165.163v0.065l0.166,0.13v0.065l0.165,0.13v0.065l0.166,0.13v0.065l0.165,0.13v0.065l0.066,0.032v0.033l0.066,0.032v0.065l0.166,0.13v0.065l0.165,0.13v0.065l0.166,0.13v0.065l0.165,0.13v0.065l0.165,0.13v0.065l0.166,0.13v0.065l0.066,0.033v0.032l0.066,0.033v0.065l0.066,0.033,0.066,0.1h0.033v0.065l0.165,0.13V27.9l0.165,0.13V28.1l0.166,0.13v0.065l0.166,0.13v0.065l0.132,0.1v0.065l0.165,0.13v0.065l0.165,0.13v0.065l0.132,0.1V25.4H71.773V25.367A1.83,1.83,0,0,1,71.21,25.2H71.177V25.01h1.655V25.2H72.8v0.033a1.539,1.539,0,0,0-.53.162,0.713,0.713,0,0,0-.033.357V30.37H71.773V30.305a0.428,0.428,0,0,1-.166-0.195l-0.166-.13V29.915l-0.165-.13V29.72l-0.166-.13V29.526l-0.165-.13V29.331L70.78,29.2V29.136l-0.166-.13V28.941l-0.165-.13V28.746l-0.166-.13V28.551l-0.165-.13c-0.418-.568-0.907-1.056-1.324-1.624l-0.165-.13V26.6l-0.166-.13V26.407l-0.132-.1-0.033-.1-0.066-.032a0.741,0.741,0,0,1-.132-0.2H68.065v4a1.333,1.333,0,0,1,.4.13l0.232,0.033v0.033h0.033V30.37H67.072V30.175a0.057,0.057,0,0,0,.033-0.033l0.6-.163V25.27l-0.7-.065V25.01Zm18.571,0V25.2l-0.629.065V25.3a1.246,1.246,0,0,1,.265.39l0.066,0.032v0.065h0.033l0.033,0.1,0.066,0.032v0.065l0.066,0.033v0.065l0.066,0.032v0.065l0.066,0.032v0.065l0.066,0.032v0.065l0.066,0.033v0.065L85.809,26.5v0.065L85.875,26.6l0.033,0.13h0.033l0.033,0.1,0.066,0.033v0.065h0.033l0.033,0.1,0.066,0.032v0.065l0.066,0.032v0.065l0.066,0.032v0.065l0.066,0.032,0.166,0.293H86.57V27.609H86.6V27.544l0.066-.033V27.446H86.7V27.381l0.066-.033V27.284H86.8V27.219l0.066-.033,0.033-.13,0.066-.032L87,26.894h0.033l0.033-.1,0.066-.033V26.7h0.033V26.634l0.066-.032,0.033-.13,0.066-.032,0.033-.13,0.066-.032V26.212h0.033V26.147H87.5l0.033-.1,0.066-.032,0.033-.13,0.066-.033,0.033-.13,0.066-.032V25.627a0.672,0.672,0,0,0,.132-0.227H87.894V25.367a1.476,1.476,0,0,1-.53-0.163H87.331V25.01H89.02V25.2H88.987v0.033c-0.244.018-.394,0.136-0.629,0.162a0.627,0.627,0,0,1-.132.227v0.065l-0.066.032v0.065l-0.066.032-0.033.13-0.066.032-0.033.13H87.927l-0.033.1-0.066.032v0.065H87.795v0.065l-0.066.033-0.033.13-0.066.032v0.065l-0.066.032-0.033.13-0.066.032-0.033.13H87.4l-0.033.1-0.066.032v0.065H87.265v0.065l-0.066.032-0.033.13-0.066.032-0.033.13H87.034l-0.033.1-0.066.032L86.9,27.8l-0.066.033-0.033.13H86.769V30.11l0.7,0.065V30.37H85.213V30.175l0.7-.065V28.031a1.26,1.26,0,0,1-.265-0.39l-0.066-.033V27.544H85.544l-0.033-.1-0.066-.033V27.349H85.411l-0.033-.1-0.066-.032V27.154l-0.1-.065V27.024l-0.066-.033-0.033-.1H85.08V26.829L85.014,26.8V26.732L84.948,26.7V26.634L84.882,26.6V26.537L84.816,26.5V26.439l-0.066-.032V26.342H84.716l-0.033-.1-0.066-.032V26.147l-0.1-.065V26.017l-0.066-.033V25.919l-0.066-.032V25.822l-0.066-.032V25.724l-0.066-.032V25.627H84.22l-0.033-.1L84.12,25.5V25.432L84.054,25.4V25.335L83.988,25.3V25.27h-0.2a1.312,1.312,0,0,0-.43-0.065V25.042a2.7,2.7,0,0,1,.728-0.033h1.49ZM45.059,27.966h1.589l-0.794-1.982H45.82l-0.1.325H45.688l-0.033.195H45.621v0.065H45.588v0.1H45.555v0.065H45.522l-0.033.162H45.456v0.1H45.423v0.065H45.39v0.1H45.357v0.065H45.323l-0.033.195A2.865,2.865,0,0,0,45.059,27.966Z"/>
</svg>
