<svg xmlns="http://www.w3.org/2000/svg" width="123" height="40" viewBox="0 0 123 40">
  <metadata><?xpacket begin="﻿" id="W5M0MpCehiHzreSzNTczkc9d"?>
<x:xmpmeta xmlns:x="adobe:ns:meta/" x:xmptk="Adobe XMP Core 5.6-c142 79.160924, 2017/07/13-01:06:39        ">
   <rdf:RDF xmlns:rdf="http://www.w3.org/1999/02/22-rdf-syntax-ns#">
      <rdf:Description rdf:about=""/>
   </rdf:RDF>
</x:xmpmeta>
                                                                                                    
                                                                                                    
                                                                                                    
                                                                                                    
                                                                                                    
                                                                                                    
                                                                                                    
                                                                                                    
                                                                                                    
                                                                                                    
                                                                                                    
                                                                                                    
                                                                                                    
                                                                                                    
                                                                                                    
                                                                                                    
                                                                                                    
                                                                                                    
                                                                                                    
                                                                                                    
                           
<?xpacket end="w"?></metadata>
<defs>
    <style>
      .cls-1 {
        fill: #fff;
        fill-rule: evenodd;
      }
    </style>
  </defs>
  <path id="LogoNona_copiar_2" data-name="LogoNona copiar 2" class="cls-1" d="M73.558,18.241V2.7H70.767V13.487L62.631,2.7H59.768V18.241H62.56V7.149l8.3,11.092h2.7Zm6.132,0.28A5.7,5.7,0,0,0,85.63,12.6a5.929,5.929,0,0,0-11.857,0A5.7,5.7,0,0,0,79.69,18.521Zm0-2.167c-2.123,0-3.316-1.748-3.316-3.752,0-1.981,1.193-3.728,3.316-3.728,2.147,0,3.34,1.748,3.34,3.728C83.03,14.606,81.837,16.354,79.69,16.354Zm16.367,1.887V10.318c0-2.307-1.241-3.612-3.722-3.612a5.5,5.5,0,0,0-4.056,1.818V6.986H85.774V18.241h2.505V10.388a3.819,3.819,0,0,1,2.958-1.515,2.027,2.027,0,0,1,2.314,2.33v7.037h2.505Zm10.4,0V10.784c0-3.029-2.242-4.078-4.8-4.078A6.945,6.945,0,0,0,96.82,8.524l1.026,1.7A4.774,4.774,0,0,1,101.257,8.8c1.6,0,2.7.792,2.7,2.1v1.678a4.822,4.822,0,0,0-3.722-1.445c-1.884,0-4.008,1.072-4.008,3.659a3.791,3.791,0,0,0,4.008,3.728,4.923,4.923,0,0,0,3.722-1.491v1.212h2.5Zm-5.248-1.4c-1.408,0-2.458-.792-2.458-2,0-1.235,1.05-2.027,2.458-2.027a3.407,3.407,0,0,1,2.743,1.165v1.7A3.408,3.408,0,0,1,101.21,16.843Zm9.567,1.678a3.357,3.357,0,0,0,2.362-.722l-0.6-1.841a1.64,1.64,0,0,1-1.121.4,1.143,1.143,0,0,1-1.1-1.328V9.13h2.338V6.986h-2.338V3.91h-2.5V6.986H105.91V9.13h1.908v6.5A2.627,2.627,0,0,0,110.777,18.521Zm11.308-.28V10.784c0-3.029-2.242-4.078-4.795-4.078a6.944,6.944,0,0,0-4.843,1.818l1.025,1.7A4.775,4.775,0,0,1,116.884,8.8c1.6,0,2.7.792,2.7,2.1v1.678a4.822,4.822,0,0,0-3.722-1.445c-1.884,0-4.008,1.072-4.008,3.659a3.791,3.791,0,0,0,4.008,3.728,4.923,4.923,0,0,0,3.722-1.491v1.212h2.5Zm-5.249-1.4c-1.407,0-2.457-.792-2.457-2,0-1.235,1.05-2.027,2.457-2.027a3.41,3.41,0,0,1,2.744,1.165v1.7A3.41,3.41,0,0,1,116.836,16.843ZM73.152,36.883L66.639,21.341H64.945L58.432,36.883h1.575l1.575-3.822H70l1.575,3.822h1.575Zm-3.6-5.033H62.035l3.77-9.088ZM74.3,36.883V21.341H73.057V36.883H74.3Zm5.988,0,4.867-11.255H83.745l-4.151,9.834-4.2-9.834H74.011l4.867,11.255h1.408Zm9.686,0.28a6.014,6.014,0,0,0,4.509-1.818l-0.644-.792a5.123,5.123,0,0,1-3.77,1.561,4.438,4.438,0,0,1-4.509-4.474H95.2V31.314c0-3.262-1.933-5.965-5.44-5.965a5.631,5.631,0,0,0-5.535,5.9A5.6,5.6,0,0,0,89.972,37.163Zm3.961-6.478H85.558A4.279,4.279,0,0,1,89.734,26.4,4.168,4.168,0,0,1,93.933,30.685Zm5.511,6.478c2.886,0,4.318-1.491,4.318-3.309,0-4.334-7.253-2.61-7.253-5.43,0-1.165,1.074-2.051,2.863-2.051a4.24,4.24,0,0,1,3.436,1.491L103.5,27a5.358,5.358,0,0,0-4.127-1.654c-2.6,0-4.1,1.4-4.1,3.122,0,4.055,7.276,2.307,7.276,5.383,0,1.3-1.145,2.283-3.078,2.283a4.846,4.846,0,0,1-3.722-1.654l-0.74.886A5.588,5.588,0,0,0,99.444,37.163ZM10.121,0l0.026,0.077h0.026V0.131l0.052,0.026V0.208L10.3,0.26V0.312l0.052,0.026,0.026,0.077h0.026V0.466l0.052,0.026V0.544L10.51,0.569V0.621l0.052,0.026V0.7l0.052,0.026V0.776l0.078,0.052V0.879L10.744,0.9,10.77,0.982H10.8V1.034l0.052,0.026V1.111L10.9,1.137V1.188l0.052,0.026V1.266L11,1.291V1.343l0.078,0.052V1.446l0.052,0.026,0.026,0.077h0.026V1.6l0.052,0.026V1.678L11.288,1.7V1.756L11.34,1.781V1.833l0.078,0.052V1.936L11.47,1.962,11.5,2.039h0.026V2.091l0.052,0.026V2.168l0.052,0.026V2.246l0.052,0.026V2.323l0.052,0.026V2.4l0.078,0.052V2.5l0.052,0.026V2.581l0.052,0.026V2.658l0.052,0.026V2.735h0.026l0.026,0.077,0.052,0.026V2.89l0.052,0.026V2.968L12.2,3.019V3.071L12.248,3.1l0.026,0.077H12.3V3.225l0.052,0.026V3.3L12.4,3.329V3.38l0.052,0.026V3.457l0.052,0.026V3.535l0.078,0.052V3.638l0.052,0.026V3.715l0.052,0.026V3.793h0.026L12.74,3.87,12.792,3.9V3.947l0.052,0.026V4.025l0.078,0.052V4.128l0.052,0.026L13,4.231h0.026V4.283l0.052,0.026V4.36l0.052,0.026V4.437l0.052,0.026V4.515l0.052,0.026V4.592l0.078,0.052V4.7l0.052,0.026L13.389,4.8h0.026V4.85l0.052,0.026V4.927l0.052,0.026V5L13.57,5.03V5.082l0.052,0.026V5.159L13.7,5.211V5.262l0.052,0.026,0.026,0.077H13.8V5.417l0.052,0.026V5.495L13.907,5.52V5.572L13.959,5.6V5.649l0.052,0.026V5.727l0.078,0.052V5.83l0.052,0.026,0.026,0.077h0.026V5.984L14.244,6.01V6.062L14.3,6.088V6.139l0.052,0.026V6.217l0.078,0.052V6.32l0.052,0.026L14.5,6.423H14.53V6.474L14.582,6.5V6.552l0.052,0.026V6.629l0.052,0.026V6.706l0.052,0.026V6.784l0.078,0.052V6.887l0.052,0.026L14.893,6.99h0.026V7.042l0.052,0.026V7.119l0.052,0.026V7.2l0.052,0.026V7.274L15.126,7.3V7.351L15.2,7.4V7.454L15.256,7.48l0.026,0.077h0.026V7.609L15.36,7.635V7.686l0.052,0.026V7.764L15.463,7.79V7.841l0.078,0.052V7.944L15.593,7.97l0.026,0.077h0.026V8.1L15.7,8.125V8.176L15.749,8.2V8.254L15.8,8.279V8.331l0.052,0.026V8.408L15.93,8.46V8.512l0.052,0.026,0.026,0.077h0.026V8.666l0.052,0.026V8.744l0.052,0.026V8.821l0.052,0.026V8.9l0.052,0.026V8.976l0.078,0.052V9.079L16.371,9.1,16.4,9.182h0.026V9.234l0.052,0.026V9.311l0.052,0.026V9.388l0.052,0.026V9.466L16.63,9.491V9.543l0.078,0.052V9.646L16.76,9.672l0.026,0.077h0.026V9.8l0.052,0.026V9.878L16.915,9.9V9.956l0.052,0.026v0.052l0.078,0.052v0.052L17.1,10.162l0.026,0.077h0.026v0.052L17.2,10.317v0.052l0.052,0.026v0.052L17.3,10.471v0.052l0.052,0.026V10.6l0.078,0.052V10.7l0.052,0.026,0.026,0.077h0.026v0.052l0.052,0.026v0.052l0.052,0.026v0.052l0.052,0.026V11.09l0.052,0.026v0.052l0.078,0.051v0.052L17.875,11.3,17.9,11.374h0.026v0.052l0.052,0.026V11.5l0.052,0.026V11.58l0.052,0.026v0.052l0.052,0.026v0.052l0.078,0.052v0.051l0.052,0.026,0.026,0.078h0.026v0.051l0.052,0.026V12.07L18.419,12.1v0.052l0.052,0.026v0.052l0.078,0.052v0.052L18.6,12.354l0.026,0.077h0.026v0.052L18.7,12.508V12.56l0.052,0.026v0.052l0.052,0.026v0.052L18.86,12.74v0.052l0.078,0.052V12.9l0.052,0.026L19.016,13h0.026V13.05l0.052,0.026v0.052H19.12L19.146,13.2,19.2,13.23v0.052l0.052,0.026v0.052l0.078,0.052v0.052l0.052,0.026L19.4,13.566h0.026v0.052l0.052,0.026v0.052l0.052,0.026v0.052L19.586,13.8v0.052l0.052,0.026v0.052l0.078,0.052V14.03l0.052,0.026,0.026,0.077H19.82v0.052l0.052,0.026v0.051l0.052,0.026v0.052l0.052,0.026v0.051l0.078,0.052V14.52l0.052,0.026V14.6l0.052,0.026v0.052L20.209,14.7v0.052h0.026l0.026,0.077,0.052,0.026v0.051l0.052,0.026v0.052l0.078,0.052v0.052l0.052,0.026L20.52,15.19h0.026v0.052L20.6,15.268v0.052l0.052,0.026V15.4L20.7,15.422v0.052L20.753,15.5v0.051L20.831,15.6v0.052l0.052,0.026v0.052l0.052,0.026v0.052h0.026l0.026,0.077,0.052,0.026v0.052L21.09,15.99v0.052l0.078,0.052v0.052L21.22,16.17l0.026,0.077h0.026V16.3l0.052,0.026v0.052L21.376,16.4v0.052l0.052,0.026v0.052l0.052,0.026v0.052l0.078,0.052v0.052l0.052,0.026v0.052l0.052,0.026v0.051l0.052,0.026v0.052h0.026l0.026,0.078,0.052,0.026V17.1l0.052,0.026v0.052l0.078,0.052v0.052L22,17.3l0.026,0.077H22.05v0.052L22.1,17.459v0.052l0.052,0.026v0.052l0.052,0.026v0.052l0.052,0.026v0.051l0.078,0.052v0.052l0.052,0.026,0.026,0.077h0.026V18l0.052,0.026v0.052L22.543,18.1v0.052l0.052,0.026v0.052l0.078,0.052v0.052l0.052,0.026,0.026,0.077h0.026v0.052l0.052,0.026v0.052l0.052,0.026v0.052l0.052,0.026v0.052l0.052,0.026V18.8l0.078,0.052V18.9l0.052,0.026,0.026,0.078h0.026v0.052l0.052,0.026v0.052l0.052,0.026v0.052l0.052,0.026V19.29l0.052,0.026v0.052l0.078,0.052v0.052L23.5,19.5l0.026,0.077h0.026v0.052l0.052,0.026V19.7l0.052,0.026V19.78l0.052,0.026v0.052l0.052,0.026v0.052l0.078,0.052v0.052l0.052,0.026,0.026,0.077h0.026v0.052l0.052,0.026V20.27L24.047,20.3v0.052L24.1,20.373v0.052l0.078,0.052v0.052l0.052,0.026,0.026,0.077H24.28v0.052l0.052,0.026V20.76l0.052,0.026v0.052l0.052,0.026v0.052l0.052,0.026v0.052l0.078,0.052V21.1l0.052,0.026L24.643,21.2h0.026V21.25l0.052,0.026v0.052l0.052,0.026V21.4l0.052,0.026v0.052l0.052,0.026v0.052l0.078,0.052v0.052l0.052,0.026,0.026,0.077h0.026v0.052l0.052,0.026v0.052l0.052,0.026v0.052L25.214,22v0.052l0.052,0.026v0.052l0.078,0.052V22.23L25.4,22.256l0.026,0.077h0.026v0.052L25.5,22.41v0.052l0.052,0.026v0.052L25.6,22.565v0.051l0.078,0.052V22.72l0.052,0.026,0.026,0.077h0.026v0.052L25.836,22.9v0.052l0.052,0.026v0.052l0.052,0.026v0.052l0.052,0.026v0.052l0.078,0.052v0.052l0.052,0.026,0.026,0.077h0.026v0.052l0.052,0.026v0.052l0.052,0.026V23.6l0.052,0.026v0.052L26.381,23.7v0.052L26.458,23.8v0.052L26.51,23.88v0.052l0.052,0.026v0.052h0.026l0.026,0.077,0.052,0.026v0.051l0.052,0.026v0.052L26.8,24.293v0.052l0.052,0.026,0.026,0.077H26.9V24.5l0.052,0.026v0.052L27,24.6v0.052l0.052,0.026v0.052l0.052,0.026v0.051l0.078,0.052v0.052l0.052,0.026,0.026,0.077h0.026v0.052l0.052,0.026v0.052l0.052,0.026v0.052l0.052,0.026V25.3L27.5,25.324v0.052l0.078,0.052v0.052L27.625,25.5l0.026,0.077h0.026v0.052l0.052,0.026v0.052l0.052,0.026v0.052l0.052,0.026v0.052l0.052,0.026v0.052l0.078,0.051v0.052l0.052,0.026,0.026,0.077h0.026V26.2l0.052,0.026v0.052L28.17,26.3v0.052l0.052,0.026v0.052L28.3,26.485v0.052l0.052,0.026,0.026,0.077H28.4v0.052l0.052,0.026v0.052l0.052,0.026v0.052l0.052,0.026v0.052l0.052,0.026V27l0.078,0.052V27.1l0.052,0.026v0.052l0.052,0.026v0.052l0.052,0.026v0.052H28.87L28.9,27.413l0.052,0.026V27.49L29,27.516v0.052l0.078,0.052v0.052L29.129,27.7l0.026,0.077h0.026v0.052l0.052,0.026V27.9l0.052,0.026V27.98l0.052,0.026v0.052l0.052,0.026v0.051l0.078,0.052v0.052l0.052,0.026,0.026,0.077H29.57v0.052l0.052,0.026V28.47L29.674,28.5v0.052l0.052,0.026v0.052L29.8,28.676v0.052l0.052,0.026,0.026,0.077h0.026v0.052l0.052,0.026V28.96l0.052,0.026v0.051l0.052,0.026v0.052l0.052,0.026v0.052l0.078,0.052V29.3l0.052,0.026L30.27,29.4H30.3V29.45l0.052,0.026v0.052L30.4,29.553V29.6l0.052,0.026v0.051L30.5,29.708V29.76l0.078,0.052v0.052l0.052,0.026,0.026,0.077h0.026v0.052l0.052,0.026v0.052l0.052,0.026v0.052L30.841,30.2v0.052l0.052,0.026v0.051l0.078,0.052V30.43l0.052,0.026,0.026,0.077h0.026V13.54H31.1l0.026-.155h0.026V13.308h0.026V13.256H31.2V13.179H31.23V13.1h0.026V13.05h0.026l0.026-.155h0.026V12.844h0.026l0.026-.155h0.026V12.637h0.026l0.026-.155h0.026V12.431h0.026V12.354h0.026V12.276h0.026V12.225h0.026l0.026-.155h0.026v27.9h-0.83l-0.052-.077H30.737V39.842l-0.052-.026V39.765l-0.052-.026V39.687l-0.052-.026V39.61L30.5,39.558V39.507l-0.052-.026L30.426,39.4H30.4V39.352l-0.052-.026V39.275L30.3,39.249V39.2l-0.052-.026V39.12l-0.078-.052V39.017l-0.052-.026-0.026-.077H30.063V38.862l-0.052-.026V38.785l-0.052-.026V38.707l-0.052-.026V38.63L29.855,38.6V38.553L29.778,38.5V38.449l-0.052-.026L29.7,38.346H29.674V38.295l-0.052-.026V38.217l-0.052-.026V38.14l-0.052-.026V38.063l-0.052-.026V37.985l-0.078-.052V37.882l-0.052-.026-0.026-.078H29.285V37.727L29.233,37.7V37.65l-0.052-.026V37.573l-0.052-.026V37.5l-0.078-.052V37.392L29,37.366l-0.026-.077H28.948V37.237L28.9,37.212V37.16l-0.052-.026V37.083l-0.052-.026V37.005L28.74,36.98V36.928l-0.078-.052V36.825L28.611,36.8l-0.026-.077H28.559V36.67l-0.052-.026V36.593H28.481l-0.026-.077L28.4,36.49V36.438l-0.052-.026V36.361l-0.078-.052V36.258l-0.052-.026L28.2,36.154H28.17V36.1l-0.052-.026V36.025L28.066,36V35.948l-0.052-.026V35.871l-0.078-.051V35.768l-0.052-.026-0.026-.077H27.833V35.613l-0.052-.026V35.536l-0.052-.026V35.458l-0.052-.026V35.381l-0.052-.026V35.3l-0.078-.052V35.2L27.5,35.175V35.123L27.444,35.1V35.046l-0.052-.026V34.968H27.366l-0.026-.077-0.052-.026V34.814l-0.052-.026V34.736l-0.078-.052V34.633l-0.052-.026-0.026-.077H27.055V34.478L27,34.453V34.4l-0.052-.026V34.324L26.9,34.3V34.246l-0.078-.052V34.143l-0.052-.026V34.066l-0.052-.026V33.988l-0.052-.026V33.911H26.64l-0.026-.077-0.052-.026V33.756l-0.052-.026V33.679l-0.078-.051V33.576l-0.052-.026-0.026-.077H26.329V33.421L26.277,33.4V33.344l-0.052-.026V33.266l-0.052-.026V33.189l-0.052-.026V33.112l-0.078-.052V33.009l-0.052-.026-0.026-.077H25.94V32.854l-0.052-.026V32.776l-0.052-.026V32.7l-0.052-.026V32.622l-0.078-.052V32.519l-0.052-.026-0.026-.077H25.6V32.364l-0.052-.026V32.286L25.5,32.261V32.209l-0.052-.026V32.132L25.4,32.106V32.054L25.317,32V31.951l-0.052-.026-0.026-.077H25.214V31.8l-0.052-.026V31.719l-0.052-.026V31.642l-0.052-.026V31.564l-0.052-.026V31.487l-0.078-.052V31.384l-0.052-.026-0.026-.077H24.825V31.229L24.773,31.2V31.152l-0.052-.026V31.074l-0.052-.026V31l-0.078-.052V30.894l-0.052-.026-0.026-.077H24.488V30.739l-0.052-.026V30.662l-0.052-.026V30.585l-0.052-.026V30.507l-0.052-.026V30.43L24.2,30.378V30.327L24.15,30.3l-0.026-.077H24.1V30.172l-0.052-.026V30.095l-0.052-.026V30.017l-0.052-.026V29.94l-0.052-.026V29.863l-0.078-.052V29.76l-0.052-.026-0.026-.077H23.71V29.6l-0.052-.026V29.527L23.606,29.5V29.45l-0.052-.026V29.373l-0.078-.052V29.27l-0.052-.026L23.4,29.166H23.373V29.115l-0.052-.026V29.037l-0.052-.026V28.96l-0.052-.026V28.883l-0.052-.026V28.805l-0.078-.052V28.7l-0.052-.026L23.009,28.6H22.983V28.548l-0.052-.026V28.47l-0.052-.026V28.393l-0.052-.026V28.315l-0.052-.026V28.238L22.7,28.187V28.135l-0.052-.026-0.026-.077H22.595V27.98l-0.052-.026V27.9l-0.052-.026V27.825L22.439,27.8V27.748L22.361,27.7V27.645l-0.052-.026-0.026-.077H22.257V27.49l-0.052-.026V27.413l-0.052-.026V27.336L22.1,27.31V27.258l-0.052-.026V27.181l-0.078-.052V27.078l-0.052-.026-0.026-.077H21.868V26.923L21.817,26.9V26.846l-0.052-.026V26.768l-0.052-.026V26.691l-0.052-.026V26.614l-0.078-.051V26.51l-0.052-.026-0.026-.077H21.479V26.356l-0.052-.026V26.278l-0.052-.026V26.2l-0.052-.026V26.124l-0.078-.052V26.02l-0.052-.026-0.026-.077H21.142V25.866L21.09,25.84V25.788l-0.052-.026V25.711l-0.052-.026V25.634l-0.052-.026V25.556L20.857,25.5V25.453l-0.052-.026-0.026-.077H20.753V25.3L20.7,25.273V25.221L20.65,25.2V25.144L20.6,25.118V25.066l-0.052-.026V24.989l-0.078-.052V24.886l-0.052-.026-0.026-.077H20.364V24.731l-0.052-.026V24.654l-0.052-.026V24.576l-0.052-.026V24.5l-0.052-.026V24.422l-0.078-.052V24.318l-0.052-.026L20,24.215H19.975V24.164l-0.052-.026V24.086H19.9l-0.026-.077-0.052-.026V23.932l-0.078-.052V23.829L19.69,23.8l-0.026-.077H19.638V23.674l-0.052-.026V23.6l-0.052-.026V23.519l-0.052-.026V23.442l-0.052-.026V23.365l-0.078-.052V23.261L19.3,23.236l-0.026-.077H19.249V23.107L19.2,23.081V23.029L19.146,23V22.952l-0.052-.026V22.875l-0.052-.026V22.8l-0.078-.052V22.694l-0.052-.026-0.026-.077H18.86V22.539l-0.052-.026V22.462H18.783l-0.026-.077L18.7,22.359V22.307l-0.078-.052V22.2l-0.052-.026L18.549,22.1H18.523V22.049l-0.052-.026V21.972l-0.052-.026V21.895l-0.052-.026V21.817l-0.052-.026V21.74l-0.078-.051V21.637l-0.052-.026-0.026-.077H18.134V21.482l-0.052-.026V21.4l-0.052-.026V21.327L17.979,21.3V21.25l-0.052-.026V21.173l-0.078-.052V21.069L17.8,21.044V20.992l-0.052-.026V20.915H17.719l-0.026-.077-0.052-.026V20.76l-0.052-.026V20.683l-0.078-.052V20.58l-0.052-.026-0.026-.077H17.408V20.425L17.356,20.4V20.347L17.3,20.322V20.27l-0.052-.026V20.193L17.2,20.167V20.115l-0.078-.052V20.012l-0.052-.026V19.935l-0.052-.026V19.857l-0.052-.026V19.78H16.941L16.915,19.7l-0.052-.026V19.625L16.812,19.6V19.548L16.734,19.5V19.445l-0.052-.026-0.026-.077H16.63V19.29l-0.052-.026V19.213l-0.052-.026V19.135l-0.052-.026V19.058L16.4,19.007V18.955l-0.052-.026-0.026-.077H16.293V18.8l-0.052-.026V18.723L16.189,18.7V18.646l-0.052-.026V18.568l-0.052-.026V18.491l-0.078-.052V18.388l-0.052-.026-0.026-.077H15.9V18.233l-0.052-.026V18.156L15.8,18.13V18.078l-0.052-.026V18L15.7,17.975V17.924l-0.078-.052V17.82l-0.052-.026-0.026-.077H15.515V17.666l-0.052-.026V17.588l-0.052-.026V17.511l-0.052-.026V17.434l-0.078-.052V17.331L15.23,17.3,15.2,17.227H15.178V17.176l-0.052-.026V17.1l-0.052-.026V17.021L15.022,17V16.944l-0.052-.026V16.866l-0.078-.051V16.763l-0.052-.026-0.026-.077H14.789V16.609l-0.052-.026V16.531l-0.052-.026V16.454l-0.052-.026V16.376l-0.052-.026V16.3L14.5,16.247V16.2l-0.052-.026-0.026-.078H14.4V16.041l-0.052-.026V15.964L14.3,15.938V15.886l-0.052-.026V15.809l-0.078-.052V15.706l-0.052-.026L14.089,15.6H14.063V15.551l-0.052-.026V15.474l-0.052-.026V15.4l-0.052-.026V15.319l-0.052-.026V15.242l-0.078-.052V15.139l-0.052-.026L13.7,15.036H13.674V14.984l-0.052-.026V14.907l-0.052-.026V14.829L13.518,14.8V14.752l-0.052-.026V14.674l-0.078-.052V14.571l-0.052-.026-0.026-.077H13.285V14.417l-0.052-.026V14.339l-0.052-.026V14.262l-0.052-.026V14.185l-0.078-.052V14.081L13,14.056l-0.026-.077H12.948V13.927L12.9,13.9V13.849l-0.052-.026V13.772l-0.052-.026V13.695l-0.052-.026V13.617l-0.078-.052V13.514l-0.052-.026-0.026-.077H12.559V13.359l-0.052-.026V13.282l-0.052-.026V13.2L12.4,13.179V13.127L12.351,13.1V13.05L12.274,13V12.947l-0.052-.026L12.2,12.844H12.17V12.792l-0.052-.026V12.715l-0.052-.026V12.637l-0.052-.026V12.56l-0.078-.052V12.457l-0.052-.026V12.379l-0.052-.026V12.3l-0.052-.026V12.225H11.755l-0.026-.077-0.052-.026V12.07l-0.052-.026V11.993l-0.078-.051V11.89L11.5,11.864l-0.026-.077H11.444V11.735l-0.052-.026V11.658l-0.052-.026V11.58l-0.052-.026V11.5l-0.052-.026V11.425l-0.078-.052V11.322L11.107,11.3l-0.026-.078H11.055V11.168L11,11.142V11.09l-0.052-.026V11.013L10.9,10.987V10.936l-0.052-.026V10.858l-0.078-.052V10.755l-0.052-.026-0.026-.077H10.666V10.6l-0.052-.026V10.523L10.562,10.5V10.446L10.51,10.42V10.368l-0.078-.052V10.265l-0.052-.026-0.026-.077H10.329V10.11l-0.052-.026V10.033l-0.052-.026V9.956L10.173,9.93V9.878l-0.052-.026V9.8l-0.078-.052V9.7L9.992,9.672,9.966,9.595H9.94V9.543L9.888,9.517V9.466L9.836,9.44V9.388L9.784,9.363V9.311L9.732,9.285V9.234L9.654,9.182V9.13L9.6,9.1,9.577,9.027H9.551V8.976L9.5,8.95V8.9L9.447,8.873V8.821L9.4,8.8V8.744L9.317,8.692V8.641L9.265,8.615,9.24,8.537H9.214V8.486L9.162,8.46V8.408L9.11,8.383V8.331L9.058,8.305V8.254L9.006,8.228V8.176L8.928,8.125V8.073L8.877,8.047,8.851,7.97H8.825V7.918L8.773,7.893V7.841H8.747L8.721,7.764,8.669,7.738V7.686L8.617,7.661V7.609L8.539,7.557V7.506L8.488,7.48,8.462,7.4H8.436V7.351L8.384,7.325V7.274L8.332,7.248V7.2L8.28,7.171V7.119L8.2,7.068V7.016L8.15,6.99,8.125,6.913H8.1V6.861L8.047,6.835V6.784L7.995,6.758V6.706L7.943,6.681V6.629L7.891,6.6V6.552L7.813,6.5V6.449L7.761,6.423,7.736,6.345H7.71V6.294L7.658,6.268V6.217L7.606,6.191V6.139L7.554,6.113V6.062L7.5,6.036V5.984L7.424,5.933V5.881L7.372,5.856,7.346,5.778H7.321V5.727L7.269,5.7V5.649L7.217,5.623V5.572L7.165,5.546V5.495L7.087,5.443V5.391L7.035,5.366,7.009,5.288H6.984V5.237L6.932,5.211V5.159L6.88,5.133V5.082L6.828,5.056V5L6.776,4.979V4.927L6.7,4.876V4.824L6.646,4.8,6.62,4.721H6.595V4.669L6.543,4.644V4.592L6.491,4.566V4.515L6.439,4.489V4.437L6.387,4.412V4.36L6.309,4.308V4.257L6.257,4.231V4.18L6.206,4.154V4.1L6.154,4.076l-0.13-.232H6V35.69a2.184,2.184,0,0,1,.052.49c0.038,0.132.065,0.314,0.1,0.438v0.129H6.18l0.026,0.206H6.231v0.077H6.257v0.077H6.283v0.077H6.309l0.026,0.155a4.705,4.705,0,0,0,.493.851L7.061,38.4l0.156,0.18a5.52,5.52,0,0,0,3.242.825v0.541a3.7,3.7,0,0,1-.908.026H0.967A1.994,1.994,0,0,1,.941,39.4H1.175V39.378H1.693V39.352H1.927V39.326H2.134V39.3H2.29V39.275h0.13V39.249h0.13V39.223h0.1V39.2h0.1V39.171h0.1V39.146H2.938V39.12H3.016V39.094H3.094V39.068H3.171V39.042l0.1-.026V38.991H3.353V38.965l0.156-.052V38.888H3.561V38.862l0.156-.051,0.026-.052H3.794l0.026-.052H3.872L3.9,38.656H3.949L3.975,38.6H4.027l0.1-.129H4.183l0.1-.129,0.207-.181V38.114l0.1-.077V37.985l0.078-.052V37.882l0.052-.026V37.8l0.052-.026,0.026-.1,0.052-.026,0.026-.1H4.909V37.5H4.935l0.052-.155H5.013V37.263H5.039V37.212H5.065l0.026-.129H5.116l0.182-.67V36.258H5.324V36.1H5.35v-0.18H5.376V35.639H5.4V4.979a2.878,2.878,0,0,0-.026-0.645V4.051L5.22,3.225H5.194L5.168,3.045H5.142V2.968H5.116V2.89H5.09V2.839H5.065V2.761H5.039V2.71H5.013V2.632H4.987L4.935,2.478H4.909V2.426H4.883L4.831,2.271,4.779,2.246V2.194L4.727,2.168V2.117H4.7L4.676,2.039,4.624,2.013V1.962l-0.1-.077C3.852,0.961,2.533.577,0.941,0.569V0.028A3.579,3.579,0,0,1,1.823,0h8.3ZM26.614,0h6.172a0.552,0.552,0,0,1-.078.206V0.286H32.682V0.337H32.656l-0.026.155H32.6V0.544H32.578L32.552,0.7H32.526V0.75H32.5L32.475,0.9H32.449V0.956H32.423L32.4,1.111H32.371V1.162H32.345l-0.026.155H32.293V1.369H32.267l-0.026.155H32.215V1.575H32.189V1.652H32.163V1.73c-0.241.545-.435,1.157-0.674,1.7l-0.026.155H31.437V3.638H31.411l-0.026.155H31.359V3.844H31.334L31.308,4H31.282V4.051H31.256l-0.026.155H31.2V4.257H31.178V4.334H31.152V4.412H31.126L31.1,4.541H31.074a5.1,5.1,0,0,0-.622-2.4l-0.026-.1-0.052-.026V1.962L30.3,1.91V1.859l-0.1-.077c-0.647-.893-2.037-1.206-3.579-1.212V0ZM34.16,0h0.648a0.547,0.547,0,0,0,.078.206V0.286h0.026V0.337h0.026l0.026,0.155H34.99V0.544h0.026L35.042,0.7h0.026V0.75h0.026L35.12,0.9h0.026V0.956h0.026L35.2,1.111h0.026V1.162h0.026V1.24h0.026V1.317c0.252,0.57.45,1.209,0.7,1.779L36,3.251h0.026V3.3h0.026V3.38h0.026V3.457H36.1V3.509h0.026l0.026,0.155h0.026V3.715h0.026L36.235,3.87h0.026V3.922h0.026l0.026,0.155h0.026V4.128h0.026L36.39,4.283h0.026V4.334h0.026l0.026,0.155h0.026V4.541H36.52V4.618h0.026V4.7h0.026V4.747H36.6L36.65,4.979h0.026V5.03H36.7l0.026,0.155h0.026V5.237h0.026l0.026,0.155h0.026V5.443h0.026L36.883,5.6h0.026V5.649h0.026L36.961,5.8h0.026V5.856h0.026L37.039,6.01h0.026V6.062H37.09V6.139h0.026V6.217c0.4,0.9.691,1.905,1.089,2.811l0.026,0.155h0.026V9.234h0.026l0.026,0.155h0.026V9.44h0.026l0.026,0.155h0.026V9.646h0.026L38.465,9.8h0.026V9.852h0.026l0.026,0.155h0.026v0.052h0.026l0.026,0.155h0.026v0.052h0.026L38.7,10.42h0.026v0.052H38.75l0.026,0.155c0.369,0.838.643,1.767,1.011,2.6l0.026,0.155h0.026v0.052h0.026l0.026,0.155h0.026v0.052h0.026V13.72h0.026V13.8h0.026v0.052h0.026L40.047,14h0.026v0.052H40.1l0.026,0.155H40.15v0.051h0.026L40.2,14.417h0.026v0.052h0.026v0.077H40.28L40.306,14.7c0.358,0.814.628,1.713,0.985,2.527l0.026,0.155h0.026v0.052h0.026L41.4,17.588h0.026V17.64h0.026v0.077h0.026L41.5,17.872c0.24,0.545.435,1.157,0.674,1.7L42.2,19.729h0.026V19.78h0.026l0.026,0.155H42.3v0.052h0.026v0.077h0.026v0.077h0.026v0.052h0.026l0.026,0.155h0.026V20.4h0.026l0.026,0.155h0.026v0.052h0.026l0.026,0.155h0.026v0.051H42.64l0.026,0.155h0.026v0.052h0.026l0.026,0.155H42.77V21.25H42.8V21.3h0.026v0.077h0.026v0.077h0.026v0.052H42.9l0.026,0.155h0.026v0.052h0.026v0.077H43v0.077h0.026V21.92h0.026l0.026,0.155h0.026v0.052h0.026l0.026,0.155h0.026v0.052H43.21l0.026,0.155h0.026v0.052h0.026l0.026,0.155H43.34v0.052h0.026L43.392,22.9h0.026v0.052h0.026l0.026,0.155H43.5v0.052h0.026v0.077h0.026v0.077h0.026v0.052H43.6l0.026,0.155h0.026v0.051h0.026L43.7,23.726h0.026v0.052h0.026l0.026,0.155h0.026v0.052h0.026l0.026,0.155h0.026V24.19h0.026l0.052,0.232c0.447,1.015.773,2.131,1.219,3.146L45.233,27.8h0.026v0.052h0.026l0.026,0.155h0.026v0.052h0.026l0.026,0.155h0.026v0.052H45.44l0.026,0.155c0.3,0.679.531,1.435,0.83,2.114l0.026,0.155h0.026v0.052h0.026l0.052,0.232h0.026v0.052h0.026L46.5,31.178H46.53v0.051h0.026l0.026,0.155h0.026v0.052h0.026l0.026,0.155h0.026v0.052h0.026L46.737,31.8h0.026v0.052h0.026L46.815,32c0.428,0.971.741,2.044,1.167,3.017l0.052,0.232c0.045,0.112.11,0.249,0.155,0.361V35.69h0.026v0.052h0.026v0.078h0.026v0.051h0.026L48.319,36h0.026v0.077h0.026v0.052H48.4v0.077h0.026v0.052h0.026v0.077h0.026l0.026,0.1h0.026v0.077h0.026L48.6,36.67H48.63v0.052h0.026V36.8h0.026l0.052,0.155H48.76v0.052h0.026l0.026,0.1,0.052,0.026v0.051h0.026v0.052h0.026v0.052h0.026v0.052l0.052,0.026v0.051h0.026v0.052h0.026l0.026,0.077,0.052,0.026v0.052l0.052,0.026V37.7l0.1,0.077v0.052l0.182,0.155,0.259,0.283h0.052l0.078,0.1H49.9l0.052,0.077H50L50.03,38.5l0.078,0.026v0.026l0.1,0.026a6.273,6.273,0,0,0,3.423.8,2,2,0,0,1,.026.567H39.139V39.378a4.357,4.357,0,0,0,2.334-.49l0.1-.026L41.6,38.81h0.052l0.026-.052h0.052l0.1-.129h0.052l0.1-.129,0.052-.026V38.424l0.1-.077V38.295l0.052-.026,0.026-.077h0.026V38.14h0.026V38.088H42.3V38.037h0.026V37.985h0.026l0.026-.1h0.026V37.8h0.026V37.727h0.026V37.65h0.026v-0.1H42.51V37.392h0.026V37.134a0.493,0.493,0,0,0,.026-0.232H42.536V36.619l-0.156-.7H42.355l-0.026-.155H42.3V35.716H42.277l-0.026-.155H42.225l-0.026-.1H42.173V35.381H42.147V35.329H42.121l-0.026-.1H42.069V35.149H42.043V35.1H42.018l-0.026-.1H41.966V34.917H41.94V34.865H41.914l-0.026-.155H41.862V34.659H41.836L41.81,34.5H41.784V34.427H41.758V34.375H41.732l-0.026-.155H41.68V34.169H41.654L41.6,33.937H41.577V33.885H41.551l-0.026-.155H41.5V33.679H41.473l-0.052-.232H41.4V33.4H41.369l-0.026-.155H41.317V33.189H41.291V33.112H41.265V33.034H41.24V32.983H41.214l-0.052-.232H41.136V32.7H41.11l-0.026-.155H41.058V32.493H41.032l-0.052-.232H40.954V32.209H40.928L40.9,32.054H40.877V32H40.851l-0.026-.155H40.8V31.8H40.773l-0.026-.155H40.721V31.564H40.695V31.513H40.669V31.436H40.643V31.358H40.617V31.307H40.591l-0.052-.232H40.513V31.023H40.487l-0.026-.155H40.436V30.817H40.41l-0.052-.232H40.332V30.533H40.306l-0.026-.155H40.254V30.327H40.228L40.2,30.172H40.176V30.12H40.15l-0.026-.155H40.1V29.888H40.073V29.837H40.047V29.76H40.021V29.682H39.995V29.631H39.969L39.917,29.4H39.891V29.347H39.865l-0.026-.155H39.813V29.141H39.787V29.063a0.657,0.657,0,0,1-.078-0.206H32.941V28.29h6.535V28.264H39.45l-0.026-.129H39.4V28.058H39.372V28.006H39.346V27.929H39.321V27.851H39.295V27.774H39.269V27.722H39.243l-0.026-.155H39.191V27.516H39.165l-0.026-.155H39.113V27.31H39.087l-0.026-.155H39.035V27.1H39.009l-0.026-.155H38.958V26.9H38.932l-0.052-.232c-0.439-1-.755-2.1-1.193-3.094L37.4,22.72c-0.221-.5-0.4-1.071-0.622-1.573l-0.026-.155H36.727V20.941H36.7l-0.026-.155H36.65V20.708H36.624V20.657H36.6L36.572,20.5H36.546V20.451H36.52L36.494,20.3H36.468V20.244H36.442l-0.026-.155H36.39V20.038H36.364l-0.026-.155H36.312V19.832H36.286l-0.026-.155H36.235V19.6H36.209V19.548H36.183V19.471H36.157V19.393H36.131V19.342H36.1l-0.026-.155H36.053V19.135H36.027L36,18.981H35.975V18.929H35.949l-0.026-.155H35.9V18.723H35.872l-0.026-.155H35.82V18.517H35.794l-0.052-.232c-0.409-.929-0.707-1.959-1.115-2.888L34.6,15.242H34.575V15.19H34.549V15.113H34.523V15.036H34.5V14.984H34.471l-0.052-.232H34.394V14.7H34.368l-0.026-.155H34.316V14.494H34.29l-0.026-.155H34.238V14.288H34.212l-0.026-.155H34.16V14.081H34.134l-0.026-.155H34.082V13.875H34.056L34,13.643c-0.409-.929-0.707-1.958-1.115-2.888L32.864,10.6H32.838V10.549H32.812l-0.026-.155H32.76V10.342H32.734V10.265H32.708l-0.026-.155H32.656V10.059H32.63L32.6,9.9H32.578V9.852H32.552L32.526,9.7H32.5V9.646H32.475l-0.026-.155H32.423V9.44H32.4l-0.026-.155H32.345V9.234H32.319l-0.026-.155H32.267V9H32.241V8.95H32.215V8.873H32.189V8.8H32.163V8.744H32.137l-0.026-.155H32.086V8.537H32.06l-0.026-.155H32.008V8.331H31.982l-0.026-.155H31.93V8.125H31.9a1.145,1.145,0,0,1-.052-0.206H31.826V7.944H31.8L31.774,8.1H31.749V8.151H31.723V8.228H31.7V8.305H31.671V8.357H31.645l-0.026.155H31.593V8.563H31.567l-0.026.155H31.515V8.769H31.489l-0.026.155H31.437V8.976H31.411l-0.026.155c-0.33.746-.579,1.574-0.908,2.321l-0.026.155H30.426v0.052H30.4l-0.026.155H30.348v0.051H30.322v0.078H30.3v0.077H30.27V12.07H30.244l-0.026.155H30.193v0.052H30.167l-0.026.155H30.115v0.052H30.089l-0.026.155H30.037v0.052H30.011l-0.026.155H29.959V12.9H29.933l-0.026.155H29.881V13.1H29.855v0.078H29.83v0.077c-0.388.88-.676,1.853-1.063,2.733l-0.026.155H28.714V16.2H28.689l-0.026.155H28.637V16.4H28.611l-0.026.155H28.559v0.052H28.533l-0.026.155H28.481v0.052H28.455l-0.026.155H28.4v0.052H28.377V17.1H28.351v0.078H28.325v0.052H28.3l-0.026.155H28.248v0.052H28.222l-0.026.155H28.17V17.64H28.144l-0.026.155H28.092v0.052H28.066L28.04,18H28.014v0.052H27.988l-0.026.155c-0.24.545-.435,1.156-0.674,1.7l-0.026.155H27.236v0.052H27.21l-0.026.155H27.159v0.052H27.133V20.4H27.107v0.077H27.081v0.052H27.055l-0.026.155H27v0.052H26.977l-0.026.155H26.925v0.052H26.9l-0.026.155H26.847v0.052H26.821L26.8,21.3a2.391,2.391,0,0,0-.181.464H26.588V21.74a0.308,0.308,0,0,1-.052-0.077H26.51V21.611l-0.078-.052V21.508l-0.052-.026V21.43L26.329,21.4V21.353l-0.052-.026V21.276H26.251a0.221,0.221,0,0,1-.026-0.129h0.026l0.026-.155H26.3V20.941h0.026l0.026-.155h0.026V20.734h0.026l0.026-.155h0.026V20.5h0.026V20.451H26.51l0.026-.155h0.026V20.244h0.026l0.026-.155H26.64V20.038h0.026l0.026-.155h0.026V19.832h0.026l0.026-.155H26.8V19.625h0.026V19.548h0.026V19.471c0.381-.863.659-1.819,1.037-2.682l0.052-.232h0.026V16.505h0.026l0.026-.155H28.04V16.3h0.026l0.026-.155h0.026V16.093h0.026l0.026-.155H28.2V15.886h0.026l0.026-.155h0.026V15.68H28.3l0.026-.155h0.026V15.474h0.026V15.4H28.4l0.026-.155h0.026V15.19h0.026l0.026-.155h0.026V14.984h0.026l0.026-.155h0.026V14.778h0.026l0.026-.155h0.026V14.571h0.026l0.026-.155h0.026V14.365h0.026l0.026-.155h0.026V14.133H28.87V14.081H28.9V14h0.026V13.927h0.026V13.875h0.026L29,13.72h0.026V13.669h0.026l0.026-.155H29.1V13.463h0.026l0.026-.155h0.026V13.256h0.026l0.026-.155h0.026V13.05h0.026l0.052-.232c0.31-.7.547-1.488,0.856-2.192l0.026-.155h0.026V10.42H30.27l0.052-.232h0.026V10.136h0.026L30.4,9.981h0.026V9.93h0.026l0.026-.155H30.5V9.724H30.53l0.026-.155h0.026V9.517h0.026l0.026-.155h0.026V9.311h0.026l0.026-.155h0.026V9.1h0.026l0.026-.155h0.026V8.873h0.026V8.821h0.026V8.744h0.026V8.666c0.221-.5.4-1.07,0.622-1.573l0.026-.155h0.026V6.887h0.026V6.81h0.026V6.732h0.026V6.681h0.026L31.7,6.526h0.026V6.474h0.026l0.026-.155H31.8V6.268h0.026l0.026-.155h0.026V6.062H31.9l0.026-.155h0.026V5.856h0.026L32.008,5.7h0.026V5.649H32.06V5.572h0.026V5.495h0.026V5.443h0.026l0.026-.155h0.026V5.237h0.026V5.159h0.026V5.082c0.358-.813.628-1.713,0.985-2.527L33.252,2.4h0.026V2.349H33.3l0.026-.155h0.026V2.142h0.026l0.026-.155h0.026V1.936H33.46l0.026-.155h0.026V1.73h0.026l0.026-.155H33.59V1.523h0.026l0.026-.155h0.026V1.317h0.026l0.026-.155h0.026V1.111h0.026L33.8,0.956h0.026V0.9h0.026l0.026-.155H33.9V0.7h0.026V0.621h0.026V0.544h0.026V0.492H34l0.026-.155h0.026V0.286h0.026V0.208A0.653,0.653,0,0,0,34.16,0ZM24.1,39.945H15.152V39.378a6.153,6.153,0,0,0,3.734-.928l0.13-.155h0.052l0.026-.052,0.13-.1V38.088l0.182-.155V37.882l0.1-.077V37.753l0.078-.052V37.65l0.052-.026V37.573l0.078-.051V37.469l0.052-.026V37.392l0.052-.026,0.026-.077h0.026l0.026-.1h0.026l0.026-.077L20,37.083l0.026-.1,0.052-.026,0.052-.155,0.052-.026V36.722h0.026V36.67h0.026V36.619h0.026V36.567l0.052-.026V36.49h0.026V36.438h0.026V36.386H20.39V36.335h0.026V36.283h0.026V36.232h0.026V36.18h0.026l0.026-.1h0.026l0.026-.1H20.6V35.922h0.026V35.871H20.65V35.819h0.026V35.768H20.7l0.026-.1h0.026V35.613h0.026V35.536h0.026V35.484h0.026V35.432h0.026l0.052-.155h0.026V35.2h0.026V35.149h0.026l0.026-.1h0.026V34.968h0.026V34.917H21.09l0.026-.129h0.026l0.052-.232c0.221-.5.4-1.07,0.622-1.573l0.026-.155h0.026V32.776h0.026V32.7H21.92V32.622h0.026V32.57h0.026L22,32.415h0.026V32.364H22.05l0.052-.232h0.026V32.08h0.026l0.026-.155h0.026V31.874h0.026l0.026-.155h0.026V31.668h0.026l0.026-.155h0.026V31.461h0.026V31.384h0.026V31.307h0.026V31.255h0.026l0.026-.155h0.026V31.049h0.026l0.026-.155h0.026V30.817H22.62V30.765h0.026V30.688h0.026V30.61H22.7l0.026-.129H22.75v0.026a0.813,0.813,0,0,1,.13.206l0.052,0.026v0.052l0.052,0.026v0.051l0.052,0.026a0.318,0.318,0,0,1,.078.232H23.087l-0.026.129H23.035v0.077H23.009v0.052H22.983v0.077H22.958v0.077H22.932V31.59H22.906l-0.026.129H22.854l-0.026.155H22.8v0.052H22.776l-0.026.155H22.724v0.052H22.7v0.077H22.672v0.052H22.646l-0.026.155H22.595v0.052H22.569v0.077H22.543v0.078H22.517v0.052H22.491l-0.026.129H22.439l-0.026.155H22.387v0.052H22.361v0.077H22.335v0.052H22.309l-0.026.155H22.257v0.052H22.232l-0.026.155H22.18V33.55H22.154v0.078H22.128v0.051H22.1v0.077H22.076v0.077H22.05v0.052H22.024L22,34.04H21.972v0.052H21.946l-0.026.129H21.894l-0.026.155H21.842v0.051H21.817V34.5H21.791v0.051H21.765l-0.026.155H21.713v0.052H21.687l-0.026.155H21.635v0.052H21.609v0.077H21.583v0.1H21.557v0.077H21.531V35.3H21.505v0.077H21.479v0.078H21.454v0.1H21.428l-0.026.18H21.376v0.078H21.35L21.324,36H21.3v0.1H21.272l-0.052.31H21.194l-0.052.335a2.787,2.787,0,0,0-.026,1.625c0.442,0.824,1.676,1,2.956,1.006A2,2,0,0,1,24.1,39.945Z"/>
</svg>
